<mxfile host="app.diagrams.net" modified="2020-08-07T06:11:52.750Z" agent="5.0 (Macintosh; Intel Mac OS X 10_15_5) AppleWebKit/537.36 (KHTML, like Gecko) Chrome/84.0.4147.105 Safari/537.36" etag="Se9-Gpy9Vtnd0uHPicNN" version="13.4.4" type="github" pages="5">
  <diagram id="s33BEsmGWGS7mWIy-5hT" name="Sprint27">
    <mxGraphModel dx="1186" dy="511" grid="1" gridSize="10" guides="1" tooltips="1" connect="1" arrows="1" fold="1" page="1" pageScale="1" pageWidth="850" pageHeight="1100" math="0" shadow="0">
      <root>
        <mxCell id="0" />
        <mxCell id="1" parent="0" />
        <mxCell id="boOYyz_OFliwlTwc_qF7-1" value="" style="rounded=0;whiteSpace=wrap;html=1;dashed=1;fillColor=#fff2cc;strokeColor=#d6b656;" parent="1" vertex="1">
          <mxGeometry x="480" y="60" width="740" height="310" as="geometry" />
        </mxCell>
        <mxCell id="boOYyz_OFliwlTwc_qF7-2" value="" style="rounded=0;whiteSpace=wrap;html=1;dashed=1;fillColor=#e1d5e7;strokeColor=#9673a6;" parent="1" vertex="1">
          <mxGeometry x="940" y="380" width="540" height="300" as="geometry" />
        </mxCell>
        <mxCell id="boOYyz_OFliwlTwc_qF7-3" value="" style="rounded=0;whiteSpace=wrap;html=1;dashed=1;fillColor=#f8cecc;strokeColor=#b85450;" parent="1" vertex="1">
          <mxGeometry x="470" y="380" width="440" height="300" as="geometry" />
        </mxCell>
        <mxCell id="boOYyz_OFliwlTwc_qF7-4" value="" style="edgeStyle=orthogonalEdgeStyle;rounded=0;orthogonalLoop=1;jettySize=auto;html=1;" parent="1" source="boOYyz_OFliwlTwc_qF7-22" target="boOYyz_OFliwlTwc_qF7-6" edge="1">
          <mxGeometry relative="1" as="geometry">
            <mxPoint x="330" y="470" as="sourcePoint" />
            <mxPoint x="420" y="470" as="targetPoint" />
          </mxGeometry>
        </mxCell>
        <mxCell id="boOYyz_OFliwlTwc_qF7-5" value="" style="edgeStyle=orthogonalEdgeStyle;rounded=0;orthogonalLoop=1;jettySize=auto;html=1;entryX=0;entryY=0.5;entryDx=0;entryDy=0;exitX=1;exitY=0.5;exitDx=0;exitDy=0;exitPerimeter=0;" parent="1" source="boOYyz_OFliwlTwc_qF7-22" target="boOYyz_OFliwlTwc_qF7-15" edge="1">
          <mxGeometry relative="1" as="geometry">
            <mxPoint x="280" y="440" as="sourcePoint" />
            <mxPoint x="280" y="360" as="targetPoint" />
          </mxGeometry>
        </mxCell>
        <mxCell id="boOYyz_OFliwlTwc_qF7-6" value="后端开发 (牛彪）&lt;br&gt;12.5 天" style="rounded=1;whiteSpace=wrap;html=1;absoluteArcSize=1;arcSize=14;strokeWidth=2;" parent="1" vertex="1">
          <mxGeometry x="550" y="420" width="140" height="100" as="geometry" />
        </mxCell>
        <mxCell id="boOYyz_OFliwlTwc_qF7-7" value="" style="edgeStyle=orthogonalEdgeStyle;rounded=0;orthogonalLoop=1;jettySize=auto;html=1;exitX=1;exitY=0.5;exitDx=0;exitDy=0;" parent="1" source="boOYyz_OFliwlTwc_qF7-6" target="boOYyz_OFliwlTwc_qF7-9" edge="1">
          <mxGeometry relative="1" as="geometry">
            <mxPoint x="870" y="650" as="sourcePoint" />
          </mxGeometry>
        </mxCell>
        <mxCell id="boOYyz_OFliwlTwc_qF7-8" value="" style="edgeStyle=orthogonalEdgeStyle;rounded=0;orthogonalLoop=1;jettySize=auto;html=1;" parent="1" source="boOYyz_OFliwlTwc_qF7-9" target="boOYyz_OFliwlTwc_qF7-11" edge="1">
          <mxGeometry relative="1" as="geometry" />
        </mxCell>
        <mxCell id="boOYyz_OFliwlTwc_qF7-9" value="最后一个故事前后端联调&lt;br&gt;&lt;br&gt;&amp;nbsp;1 天" style="rounded=1;whiteSpace=wrap;html=1;absoluteArcSize=1;arcSize=14;strokeWidth=2;" parent="1" vertex="1">
          <mxGeometry x="780" y="420" width="100" height="100" as="geometry" />
        </mxCell>
        <mxCell id="boOYyz_OFliwlTwc_qF7-10" value="" style="edgeStyle=orthogonalEdgeStyle;rounded=0;orthogonalLoop=1;jettySize=auto;html=1;" parent="1" source="boOYyz_OFliwlTwc_qF7-11" target="boOYyz_OFliwlTwc_qF7-13" edge="1">
          <mxGeometry relative="1" as="geometry" />
        </mxCell>
        <mxCell id="boOYyz_OFliwlTwc_qF7-11" value="最后一个故事功能测试&lt;br&gt;&lt;br&gt;1 天" style="rounded=1;whiteSpace=wrap;html=1;absoluteArcSize=1;arcSize=14;strokeWidth=2;" parent="1" vertex="1">
          <mxGeometry x="980" y="420" width="100" height="100" as="geometry" />
        </mxCell>
        <mxCell id="boOYyz_OFliwlTwc_qF7-12" value="" style="edgeStyle=orthogonalEdgeStyle;rounded=0;orthogonalLoop=1;jettySize=auto;html=1;" parent="1" source="boOYyz_OFliwlTwc_qF7-13" edge="1">
          <mxGeometry relative="1" as="geometry">
            <mxPoint x="1340" y="470" as="targetPoint" />
          </mxGeometry>
        </mxCell>
        <mxCell id="boOYyz_OFliwlTwc_qF7-13" value="S13 集成测试&lt;br&gt;(R1+R2)&lt;br&gt;2 天" style="rounded=1;whiteSpace=wrap;html=1;absoluteArcSize=1;arcSize=14;strokeWidth=2;" parent="1" vertex="1">
          <mxGeometry x="1160" y="420" width="100" height="100" as="geometry" />
        </mxCell>
        <mxCell id="boOYyz_OFliwlTwc_qF7-14" value="" style="edgeStyle=orthogonalEdgeStyle;rounded=0;orthogonalLoop=1;jettySize=auto;html=1;entryX=0;entryY=0.5;entryDx=0;entryDy=0;" parent="1" source="boOYyz_OFliwlTwc_qF7-15" target="boOYyz_OFliwlTwc_qF7-9" edge="1">
          <mxGeometry relative="1" as="geometry">
            <mxPoint x="590" y="310" as="targetPoint" />
          </mxGeometry>
        </mxCell>
        <mxCell id="boOYyz_OFliwlTwc_qF7-15" value="前端开发 （永洁）&lt;br&gt;10.5 天" style="rounded=1;whiteSpace=wrap;html=1;absoluteArcSize=1;arcSize=14;strokeWidth=2;" parent="1" vertex="1">
          <mxGeometry x="545" y="560" width="150" height="100" as="geometry" />
        </mxCell>
        <mxCell id="boOYyz_OFliwlTwc_qF7-16" value="R2 上线&lt;br&gt;&amp;nbsp;19 天" style="strokeWidth=2;html=1;shape=mxgraph.flowchart.terminator;whiteSpace=wrap;" parent="1" vertex="1">
          <mxGeometry x="1510" y="440" width="100" height="60" as="geometry" />
        </mxCell>
        <mxCell id="boOYyz_OFliwlTwc_qF7-17" value="" style="strokeWidth=2;html=1;shape=mxgraph.flowchart.start_1;whiteSpace=wrap;opacity=0;" parent="1" vertex="1">
          <mxGeometry x="150" y="440" width="100" height="60" as="geometry" />
        </mxCell>
        <mxCell id="boOYyz_OFliwlTwc_qF7-18" value="" style="strokeWidth=2;html=1;shape=mxgraph.flowchart.start_1;whiteSpace=wrap;opacity=0;" parent="1" vertex="1">
          <mxGeometry x="50" y="700" width="100" height="60" as="geometry" />
        </mxCell>
        <mxCell id="boOYyz_OFliwlTwc_qF7-19" value="集成测试范围&lt;br&gt;&lt;br&gt;人工审核（详情，列表）&lt;br&gt;结果（详情，列表）&lt;br&gt;批量导出" style="rounded=1;whiteSpace=wrap;html=1;absoluteArcSize=1;arcSize=14;strokeWidth=2;dashed=1;" parent="1" vertex="1">
          <mxGeometry x="1120" y="555" width="180" height="110" as="geometry" />
        </mxCell>
        <mxCell id="boOYyz_OFliwlTwc_qF7-20" value="" style="edgeStyle=orthogonalEdgeStyle;rounded=0;orthogonalLoop=1;jettySize=auto;html=1;" parent="1" source="boOYyz_OFliwlTwc_qF7-21" target="boOYyz_OFliwlTwc_qF7-16" edge="1">
          <mxGeometry relative="1" as="geometry" />
        </mxCell>
        <mxCell id="boOYyz_OFliwlTwc_qF7-21" value="UAT 测试&lt;br&gt;测试，产品和业务&lt;br&gt;&amp;nbsp;2.5 天" style="rounded=1;whiteSpace=wrap;html=1;absoluteArcSize=1;arcSize=14;strokeWidth=2;" parent="1" vertex="1">
          <mxGeometry x="1320" y="420" width="130" height="100" as="geometry" />
        </mxCell>
        <mxCell id="boOYyz_OFliwlTwc_qF7-22" value="开始" style="strokeWidth=2;html=1;shape=mxgraph.flowchart.start_1;whiteSpace=wrap;" parent="1" vertex="1">
          <mxGeometry x="350" y="440" width="100" height="60" as="geometry" />
        </mxCell>
        <mxCell id="boOYyz_OFliwlTwc_qF7-23" value="&lt;span style=&quot;text-align: left ; background-color: rgb(255 , 255 , 255)&quot;&gt;IR-1089【人工审核】手动批量审核-场景拆分 独立分支 提前发版&lt;br&gt;&lt;br&gt;殷建军（3）孙孟杰（3）左琦用例（1）&lt;br&gt;左琦（1.5）&lt;br&gt;&lt;br&gt;4.5 天&lt;br&gt;&lt;/span&gt;" style="rounded=1;whiteSpace=wrap;html=1;absoluteArcSize=1;arcSize=14;strokeWidth=2;" parent="1" vertex="1">
          <mxGeometry x="500" y="80" width="392.5" height="110" as="geometry" />
        </mxCell>
        <mxCell id="boOYyz_OFliwlTwc_qF7-24" value="&lt;span style=&quot;text-align: left ; background-color: rgb(255 , 255 , 255)&quot;&gt;IR-1035&amp;nbsp;&lt;/span&gt;&lt;span style=&quot;text-align: left ; background-color: rgb(255 , 255 , 255)&quot;&gt;【后端技术任务】apollo配置中心上生产环境 独立分支 提前发版&lt;br&gt;&lt;/span&gt;&lt;span style=&quot;text-align: left ; background-color: rgb(255 , 255 , 255)&quot;&gt;&lt;br&gt;任春宝（1），王秋丽（4）&lt;br&gt;&lt;br&gt;5天&lt;br&gt;&lt;/span&gt;" style="rounded=1;whiteSpace=wrap;html=1;absoluteArcSize=1;arcSize=14;strokeWidth=2;" parent="1" vertex="1">
          <mxGeometry x="495" y="235" width="390" height="110" as="geometry" />
        </mxCell>
        <mxCell id="boOYyz_OFliwlTwc_qF7-25" value="" style="endArrow=classic;html=1;entryX=0;entryY=0.5;entryDx=0;entryDy=0;exitX=0.5;exitY=0;exitDx=0;exitDy=0;exitPerimeter=0;" parent="1" source="boOYyz_OFliwlTwc_qF7-22" target="boOYyz_OFliwlTwc_qF7-24" edge="1">
          <mxGeometry width="50" height="50" relative="1" as="geometry">
            <mxPoint x="470" y="430" as="sourcePoint" />
            <mxPoint x="520" y="380" as="targetPoint" />
            <Array as="points">
              <mxPoint x="400" y="290" />
            </Array>
          </mxGeometry>
        </mxCell>
        <mxCell id="boOYyz_OFliwlTwc_qF7-26" value="" style="endArrow=classic;html=1;entryX=0;entryY=0.5;entryDx=0;entryDy=0;" parent="1" target="boOYyz_OFliwlTwc_qF7-23" edge="1">
          <mxGeometry width="50" height="50" relative="1" as="geometry">
            <mxPoint x="400" y="440" as="sourcePoint" />
            <mxPoint x="487.5" y="275" as="targetPoint" />
            <Array as="points">
              <mxPoint x="400" y="135" />
            </Array>
          </mxGeometry>
        </mxCell>
        <mxCell id="boOYyz_OFliwlTwc_qF7-27" value="" style="edgeStyle=orthogonalEdgeStyle;rounded=0;orthogonalLoop=1;jettySize=auto;html=1;entryX=0.006;entryY=0.629;entryDx=0;entryDy=0;entryPerimeter=0;" parent="1" source="boOYyz_OFliwlTwc_qF7-28" target="boOYyz_OFliwlTwc_qF7-29" edge="1">
          <mxGeometry relative="1" as="geometry">
            <mxPoint x="1220" y="200" as="targetPoint" />
          </mxGeometry>
        </mxCell>
        <mxCell id="boOYyz_OFliwlTwc_qF7-28" value="UAT 测试&lt;br&gt;测试，产品和业务&lt;br&gt;&amp;nbsp;1.5 天" style="rounded=1;whiteSpace=wrap;html=1;absoluteArcSize=1;arcSize=14;strokeWidth=2;" parent="1" vertex="1">
          <mxGeometry x="1010" y="150" width="130" height="100" as="geometry" />
        </mxCell>
        <mxCell id="boOYyz_OFliwlTwc_qF7-29" value="R1 上线&lt;br&gt;&amp;nbsp;6.5 天" style="strokeWidth=2;html=1;shape=mxgraph.flowchart.terminator;whiteSpace=wrap;" parent="1" vertex="1">
          <mxGeometry x="1260" y="162" width="100" height="60" as="geometry" />
        </mxCell>
        <mxCell id="boOYyz_OFliwlTwc_qF7-30" value="" style="edgeStyle=orthogonalEdgeStyle;rounded=0;orthogonalLoop=1;jettySize=auto;html=1;entryX=0;entryY=0.5;entryDx=0;entryDy=0;" parent="1" target="boOYyz_OFliwlTwc_qF7-28" edge="1">
          <mxGeometry relative="1" as="geometry">
            <mxPoint x="892.5" y="134.41000000000008" as="sourcePoint" />
            <mxPoint x="992.5" y="134.41000000000003" as="targetPoint" />
          </mxGeometry>
        </mxCell>
        <mxCell id="boOYyz_OFliwlTwc_qF7-31" value="" style="edgeStyle=orthogonalEdgeStyle;rounded=0;orthogonalLoop=1;jettySize=auto;html=1;entryX=0.016;entryY=0.587;entryDx=0;entryDy=0;entryPerimeter=0;" parent="1" target="boOYyz_OFliwlTwc_qF7-28" edge="1">
          <mxGeometry relative="1" as="geometry">
            <mxPoint x="885" y="290.06000000000006" as="sourcePoint" />
            <mxPoint x="1002.5" y="355.65" as="targetPoint" />
            <Array as="points">
              <mxPoint x="950" y="290" />
              <mxPoint x="950" y="209" />
            </Array>
          </mxGeometry>
        </mxCell>
      </root>
    </mxGraphModel>
  </diagram>
  <diagram name="Sprint27-2" id="YGxYSYr-Vt5dYGI9YHw-">
    
    <mxGraphModel dx="1666" dy="1871" grid="1" gridSize="10" guides="1" tooltips="1" connect="1" arrows="1" fold="1" page="1" pageScale="1" pageWidth="850" pageHeight="1100" math="0" shadow="0">
      
      <root>
        
        <mxCell id="wUmFSTrWnR9z2WbMB7JU-0" />
        
        <mxCell id="wUmFSTrWnR9z2WbMB7JU-1" parent="wUmFSTrWnR9z2WbMB7JU-0" />
        
        <mxCell id="wUmFSTrWnR9z2WbMB7JU-2" value="" style="rounded=0;whiteSpace=wrap;html=1;dashed=1;fillColor=#fff2cc;strokeColor=#d6b656;" parent="wUmFSTrWnR9z2WbMB7JU-1" vertex="1">
          
          <mxGeometry x="480" y="-220" width="1000" height="590" as="geometry" />
          
        </mxCell>
        
        <mxCell id="wUmFSTrWnR9z2WbMB7JU-3" value="" style="rounded=0;whiteSpace=wrap;html=1;dashed=1;fillColor=#e1d5e7;strokeColor=#9673a6;" parent="wUmFSTrWnR9z2WbMB7JU-1" vertex="1">
          
          <mxGeometry x="940" y="380" width="540" height="300" as="geometry" />
          
        </mxCell>
        
        <mxCell id="wUmFSTrWnR9z2WbMB7JU-4" value="" style="rounded=0;whiteSpace=wrap;html=1;dashed=1;fillColor=#f8cecc;strokeColor=#b85450;" parent="wUmFSTrWnR9z2WbMB7JU-1" vertex="1">
          
          <mxGeometry x="470" y="380" width="440" height="300" as="geometry" />
          
        </mxCell>
        
        <mxCell id="wUmFSTrWnR9z2WbMB7JU-5" value="" style="edgeStyle=orthogonalEdgeStyle;rounded=0;orthogonalLoop=1;jettySize=auto;html=1;" parent="wUmFSTrWnR9z2WbMB7JU-1" source="wUmFSTrWnR9z2WbMB7JU-23" target="wUmFSTrWnR9z2WbMB7JU-7" edge="1">
          
          <mxGeometry relative="1" as="geometry">
            
            <mxPoint x="330" y="470" as="sourcePoint" />
            
            <mxPoint x="420" y="470" as="targetPoint" />
            
          </mxGeometry>
          
        </mxCell>
        
        <mxCell id="wUmFSTrWnR9z2WbMB7JU-6" value="" style="edgeStyle=orthogonalEdgeStyle;rounded=0;orthogonalLoop=1;jettySize=auto;html=1;entryX=0;entryY=0.5;entryDx=0;entryDy=0;exitX=1;exitY=0.5;exitDx=0;exitDy=0;exitPerimeter=0;" parent="wUmFSTrWnR9z2WbMB7JU-1" source="wUmFSTrWnR9z2WbMB7JU-23" target="wUmFSTrWnR9z2WbMB7JU-16" edge="1">
          
          <mxGeometry relative="1" as="geometry">
            
            <mxPoint x="280" y="440" as="sourcePoint" />
            
            <mxPoint x="280" y="360" as="targetPoint" />
            
          </mxGeometry>
          
        </mxCell>
        
        <mxCell id="wUmFSTrWnR9z2WbMB7JU-7" value="S27 R3 后端开发&amp;nbsp;&lt;br&gt;魏涛，郝旭龙，沈志刚，鲁万才，付为地" style="rounded=1;whiteSpace=wrap;html=1;absoluteArcSize=1;arcSize=14;strokeWidth=2;" parent="wUmFSTrWnR9z2WbMB7JU-1" vertex="1">
          
          <mxGeometry x="550" y="420" width="140" height="100" as="geometry" />
          
        </mxCell>
        
        <mxCell id="wUmFSTrWnR9z2WbMB7JU-8" value="" style="edgeStyle=orthogonalEdgeStyle;rounded=0;orthogonalLoop=1;jettySize=auto;html=1;exitX=1;exitY=0.5;exitDx=0;exitDy=0;" parent="wUmFSTrWnR9z2WbMB7JU-1" source="wUmFSTrWnR9z2WbMB7JU-7" target="wUmFSTrWnR9z2WbMB7JU-10" edge="1">
          
          <mxGeometry relative="1" as="geometry">
            
            <mxPoint x="870" y="650" as="sourcePoint" />
            
          </mxGeometry>
          
        </mxCell>
        
        <mxCell id="wUmFSTrWnR9z2WbMB7JU-9" value="" style="edgeStyle=orthogonalEdgeStyle;rounded=0;orthogonalLoop=1;jettySize=auto;html=1;" parent="wUmFSTrWnR9z2WbMB7JU-1" source="wUmFSTrWnR9z2WbMB7JU-10" edge="1">
          
          <mxGeometry relative="1" as="geometry">
            
            <mxPoint x="980" y="470" as="targetPoint" />
            
          </mxGeometry>
          
        </mxCell>
        
        <mxCell id="wUmFSTrWnR9z2WbMB7JU-10" value="最后一个故事前后端联调" style="rounded=1;whiteSpace=wrap;html=1;absoluteArcSize=1;arcSize=14;strokeWidth=2;" parent="wUmFSTrWnR9z2WbMB7JU-1" vertex="1">
          
          <mxGeometry x="780" y="420" width="100" height="100" as="geometry" />
          
        </mxCell>
        
        <mxCell id="wUmFSTrWnR9z2WbMB7JU-11" value="" style="edgeStyle=orthogonalEdgeStyle;rounded=0;orthogonalLoop=1;jettySize=auto;html=1;entryX=0;entryY=0.5;entryDx=0;entryDy=0;" parent="wUmFSTrWnR9z2WbMB7JU-1" target="wUmFSTrWnR9z2WbMB7JU-22" edge="1">
          
          <mxGeometry relative="1" as="geometry">
            
            <mxPoint x="1080" y="470" as="sourcePoint" />
            
            <mxPoint x="1160" y="470" as="targetPoint" />
            
          </mxGeometry>
          
        </mxCell>
        
        <mxCell id="wUmFSTrWnR9z2WbMB7JU-15" value="" style="edgeStyle=orthogonalEdgeStyle;rounded=0;orthogonalLoop=1;jettySize=auto;html=1;entryX=0;entryY=0.5;entryDx=0;entryDy=0;" parent="wUmFSTrWnR9z2WbMB7JU-1" source="wUmFSTrWnR9z2WbMB7JU-16" target="wUmFSTrWnR9z2WbMB7JU-10" edge="1">
          
          <mxGeometry relative="1" as="geometry">
            
            <mxPoint x="590" y="310" as="targetPoint" />
            
          </mxGeometry>
          
        </mxCell>
        
        <mxCell id="wUmFSTrWnR9z2WbMB7JU-16" value="S27 R3 前端开发&lt;br&gt;苗壮，王龙刚，徐海峰，张警国" style="rounded=1;whiteSpace=wrap;html=1;absoluteArcSize=1;arcSize=14;strokeWidth=2;" parent="wUmFSTrWnR9z2WbMB7JU-1" vertex="1">
          
          <mxGeometry x="544" y="560" width="176" height="100" as="geometry" />
          
        </mxCell>
        
        <mxCell id="wUmFSTrWnR9z2WbMB7JU-17" value="S27 上线&lt;br&gt;&amp;nbsp;&lt;br&gt;0706" style="strokeWidth=2;html=1;shape=mxgraph.flowchart.terminator;whiteSpace=wrap;" parent="wUmFSTrWnR9z2WbMB7JU-1" vertex="1">
          
          <mxGeometry x="1510" y="440" width="100" height="60" as="geometry" />
          
        </mxCell>
        
        <mxCell id="wUmFSTrWnR9z2WbMB7JU-18" value="" style="strokeWidth=2;html=1;shape=mxgraph.flowchart.start_1;whiteSpace=wrap;opacity=0;" parent="wUmFSTrWnR9z2WbMB7JU-1" vertex="1">
          
          <mxGeometry x="150" y="440" width="100" height="60" as="geometry" />
          
        </mxCell>
        
        <mxCell id="wUmFSTrWnR9z2WbMB7JU-19" value="" style="strokeWidth=2;html=1;shape=mxgraph.flowchart.start_1;whiteSpace=wrap;opacity=0;" parent="wUmFSTrWnR9z2WbMB7JU-1" vertex="1">
          
          <mxGeometry x="50" y="700" width="100" height="60" as="geometry" />
          
        </mxCell>
        
        <mxCell id="wUmFSTrWnR9z2WbMB7JU-21" value="" style="edgeStyle=orthogonalEdgeStyle;rounded=0;orthogonalLoop=1;jettySize=auto;html=1;" parent="wUmFSTrWnR9z2WbMB7JU-1" source="wUmFSTrWnR9z2WbMB7JU-22" target="wUmFSTrWnR9z2WbMB7JU-17" edge="1">
          
          <mxGeometry relative="1" as="geometry" />
          
        </mxCell>
        
        <mxCell id="wUmFSTrWnR9z2WbMB7JU-22" value="UAT 测试&lt;br&gt;" style="rounded=1;whiteSpace=wrap;html=1;absoluteArcSize=1;arcSize=14;strokeWidth=2;" parent="wUmFSTrWnR9z2WbMB7JU-1" vertex="1">
          
          <mxGeometry x="1280" y="420" width="130" height="100" as="geometry" />
          
        </mxCell>
        
        <mxCell id="wUmFSTrWnR9z2WbMB7JU-23" value="开始" style="strokeWidth=2;html=1;shape=mxgraph.flowchart.start_1;whiteSpace=wrap;" parent="wUmFSTrWnR9z2WbMB7JU-1" vertex="1">
          
          <mxGeometry x="350" y="440" width="100" height="60" as="geometry" />
          
        </mxCell>
        
        <mxCell id="wUmFSTrWnR9z2WbMB7JU-38" value="" style="edgeStyle=orthogonalEdgeStyle;rounded=0;orthogonalLoop=1;jettySize=auto;html=1;" parent="wUmFSTrWnR9z2WbMB7JU-1" source="wUmFSTrWnR9z2WbMB7JU-24" target="wUmFSTrWnR9z2WbMB7JU-37" edge="1">
          
          <mxGeometry relative="1" as="geometry" />
          
        </mxCell>
        
        <mxCell id="wUmFSTrWnR9z2WbMB7JU-24" value="&lt;span style=&quot;text-align: left ; background-color: rgb(255 , 255 , 255)&quot;&gt;S27 新增需求&amp;nbsp;&lt;/span&gt;&lt;span style=&quot;font-family: &amp;#34;arial&amp;#34; ; font-size: 13px ; text-align: left ; background-color: rgb(255 , 255 , 255)&quot;&gt;【WEB-仪表盘】流动性看板-AB城市对比&lt;/span&gt;&lt;span style=&quot;text-align: left ; background-color: rgb(255 , 255 , 255)&quot;&gt;&lt;br&gt;&lt;br&gt;&lt;/span&gt;&lt;span style=&quot;font-family: &amp;#34;arial&amp;#34; ; font-size: 13px ; text-align: left ; background-color: rgb(255 , 255 , 255)&quot;&gt;郭虎（3）&lt;br&gt;范军辉（3），&lt;b&gt;徐海峰（2）&lt;/b&gt;&lt;br&gt;&lt;/span&gt;&lt;span style=&quot;text-align: left ; background-color: rgb(255 , 255 , 255)&quot;&gt;&lt;br&gt;&lt;/span&gt;" style="rounded=1;whiteSpace=wrap;html=1;absoluteArcSize=1;arcSize=14;strokeWidth=2;" parent="wUmFSTrWnR9z2WbMB7JU-1" vertex="1">
          
          <mxGeometry x="527.5" y="-200" width="392.5" height="110" as="geometry" />
          
        </mxCell>
        
        <mxCell id="wUmFSTrWnR9z2WbMB7JU-58" value="" style="edgeStyle=orthogonalEdgeStyle;rounded=0;orthogonalLoop=1;jettySize=auto;html=1;entryX=0;entryY=0.5;entryDx=0;entryDy=0;" parent="wUmFSTrWnR9z2WbMB7JU-1" source="wUmFSTrWnR9z2WbMB7JU-37" target="wUmFSTrWnR9z2WbMB7JU-56" edge="1">
          
          <mxGeometry relative="1" as="geometry">
            
            <mxPoint x="1220" y="-145" as="targetPoint" />
            
          </mxGeometry>
          
        </mxCell>
        
        <mxCell id="wUmFSTrWnR9z2WbMB7JU-37" value="&lt;span style=&quot;text-align: left ; background-color: rgb(255 , 255 , 255)&quot;&gt;测试&lt;br&gt;&lt;br&gt;&lt;br&gt;&lt;b&gt;魏源（2）&lt;/b&gt;&lt;br&gt;&lt;br&gt;&lt;/span&gt;" style="rounded=1;whiteSpace=wrap;html=1;absoluteArcSize=1;arcSize=14;strokeWidth=2;" parent="wUmFSTrWnR9z2WbMB7JU-1" vertex="1">
          
          <mxGeometry x="1000" y="-200" width="140" height="110" as="geometry" />
          
        </mxCell>
        
        <mxCell id="wUmFSTrWnR9z2WbMB7JU-25" value="&lt;span style=&quot;text-align: left ; background-color: rgb(255 , 255 , 255)&quot;&gt;S27 新增需求&amp;nbsp;&lt;/span&gt;&lt;span style=&quot;font-family: &amp;#34;arial&amp;#34; ; font-size: 13px ; text-align: left ; background-color: rgb(255 , 255 , 255)&quot;&gt;【WEB&amp;amp;APP-BI模块】铺货率指标逻辑优化&lt;/span&gt;&lt;br style=&quot;text-align: left&quot;&gt;&lt;br style=&quot;text-align: left&quot;&gt;&lt;span style=&quot;text-align: left ; background-color: rgb(255 , 255 , 255)&quot;&gt;李磊（0.5）&lt;br&gt;&lt;b&gt;徐海峰（0.5）&lt;/b&gt;&lt;/span&gt;&lt;span style=&quot;text-align: left ; background-color: rgb(255 , 255 , 255)&quot;&gt;&lt;br&gt;&lt;/span&gt;" style="rounded=1;whiteSpace=wrap;html=1;absoluteArcSize=1;arcSize=14;strokeWidth=2;" parent="wUmFSTrWnR9z2WbMB7JU-1" vertex="1">
          
          <mxGeometry x="527.5" y="-70" width="390" height="110" as="geometry" />
          
        </mxCell>
        
        <mxCell id="wUmFSTrWnR9z2WbMB7JU-26" value="" style="endArrow=classic;html=1;entryX=0;entryY=0.5;entryDx=0;entryDy=0;" parent="wUmFSTrWnR9z2WbMB7JU-1" target="wUmFSTrWnR9z2WbMB7JU-25" edge="1">
          
          <mxGeometry width="50" height="50" relative="1" as="geometry">
            
            <mxPoint x="400" y="440" as="sourcePoint" />
            
            <mxPoint x="530" y="290" as="targetPoint" />
            
            <Array as="points">
              
              <mxPoint x="400" y="-15" />
              
            </Array>
            
          </mxGeometry>
          
        </mxCell>
        
        <mxCell id="wUmFSTrWnR9z2WbMB7JU-27" value="" style="endArrow=classic;html=1;entryX=0;entryY=0.5;entryDx=0;entryDy=0;exitX=0.5;exitY=0;exitDx=0;exitDy=0;exitPerimeter=0;" parent="wUmFSTrWnR9z2WbMB7JU-1" source="wUmFSTrWnR9z2WbMB7JU-23" target="wUmFSTrWnR9z2WbMB7JU-24" edge="1">
          
          <mxGeometry width="50" height="50" relative="1" as="geometry">
            
            <mxPoint x="400" y="430" as="sourcePoint" />
            
            <mxPoint x="497.5" y="185" as="targetPoint" />
            
            <Array as="points">
              
              <mxPoint x="400" y="-145" />
              
            </Array>
            
          </mxGeometry>
          
        </mxCell>
        
        <mxCell id="wUmFSTrWnR9z2WbMB7JU-29" value="测试&lt;br&gt;&lt;br&gt;&lt;b&gt;郑慧民（1）&lt;/b&gt;" style="rounded=1;whiteSpace=wrap;html=1;absoluteArcSize=1;arcSize=14;strokeWidth=2;" parent="wUmFSTrWnR9z2WbMB7JU-1" vertex="1">
          
          <mxGeometry x="995" y="210" width="150" height="100" as="geometry" />
          
        </mxCell>
        
        <mxCell id="wUmFSTrWnR9z2WbMB7JU-30" value="S27 新增需求 完成&lt;br&gt;&lt;br&gt;6天&amp;nbsp;" style="strokeWidth=2;html=1;shape=mxgraph.flowchart.terminator;whiteSpace=wrap;" parent="wUmFSTrWnR9z2WbMB7JU-1" vertex="1">
          
          <mxGeometry x="1520" y="30" width="130" height="60" as="geometry" />
          
        </mxCell>
        
        <mxCell id="wUmFSTrWnR9z2WbMB7JU-33" value="最后一个故事前后端联调&lt;br&gt;" style="rounded=1;whiteSpace=wrap;html=1;absoluteArcSize=1;arcSize=14;strokeWidth=2;" parent="wUmFSTrWnR9z2WbMB7JU-1" vertex="1">
          
          <mxGeometry x="980" y="420" width="100" height="100" as="geometry" />
          
        </mxCell>
        
        <mxCell id="wUmFSTrWnR9z2WbMB7JU-40" value="&lt;span style=&quot;text-align: left ; background-color: rgb(255 , 255 , 255)&quot;&gt;S27 新增需求&amp;nbsp;&lt;/span&gt;&lt;span style=&quot;font-family: &amp;#34;arial&amp;#34; ; font-size: 13px ; text-align: left ; background-color: rgb(255 , 255 , 255)&quot;&gt;【APP-市场】部分区县在地图中未展示（1）&lt;br&gt;&lt;/span&gt;&lt;span style=&quot;font-family: &amp;#34;arial&amp;#34; ; font-size: 13px ; text-align: left ; background-color: rgb(255 , 255 , 255)&quot;&gt;【APP-我的】APP下载安装链接/二维码 分享（0.5）&lt;/span&gt;&lt;span style=&quot;text-align: left ; background-color: rgb(255 , 255 , 255)&quot;&gt;&lt;br&gt;&lt;br&gt;&lt;b&gt;王龙刚&lt;/b&gt;&lt;br&gt;&lt;br&gt;（和当前迭代3个故事冲突-流动性排行榜-动销指标-业绩筛选条件优化）&lt;/span&gt;&lt;span style=&quot;text-align: left ; background-color: rgb(255 , 255 , 255)&quot;&gt;&lt;br&gt;&lt;/span&gt;" style="rounded=1;whiteSpace=wrap;html=1;absoluteArcSize=1;arcSize=14;strokeWidth=2;" parent="wUmFSTrWnR9z2WbMB7JU-1" vertex="1">
          
          <mxGeometry x="527.5" y="210" width="390" height="110" as="geometry" />
          
        </mxCell>
        
        <mxCell id="wUmFSTrWnR9z2WbMB7JU-41" value="3天提测" style="text;html=1;resizable=0;autosize=1;align=center;verticalAlign=middle;points=[];fillColor=none;strokeColor=none;rounded=0;" parent="wUmFSTrWnR9z2WbMB7JU-1" vertex="1">
          
          <mxGeometry x="930" y="-170" width="60" height="20" as="geometry" />
          
        </mxCell>
        
        <mxCell id="wUmFSTrWnR9z2WbMB7JU-60" value="" style="edgeStyle=orthogonalEdgeStyle;rounded=0;orthogonalLoop=1;jettySize=auto;html=1;entryX=0;entryY=0.5;entryDx=0;entryDy=0;" parent="wUmFSTrWnR9z2WbMB7JU-1" source="wUmFSTrWnR9z2WbMB7JU-42" target="wUmFSTrWnR9z2WbMB7JU-56" edge="1">
          
          <mxGeometry relative="1" as="geometry">
            
            <mxPoint x="1270" y="50" as="targetPoint" />
            
            <Array as="points">
              
              <mxPoint x="1210" y="-25" />
              
              <mxPoint x="1210" y="60" />
              
            </Array>
            
          </mxGeometry>
          
        </mxCell>
        
        <mxCell id="wUmFSTrWnR9z2WbMB7JU-42" value="&lt;span style=&quot;text-align: left ; background-color: rgb(255 , 255 , 255)&quot;&gt;测试&lt;br&gt;&lt;br&gt;&lt;br&gt;&lt;b&gt;陈侃麟（0.5）&lt;br&gt;&lt;/b&gt;&lt;br&gt;&lt;/span&gt;" style="rounded=1;whiteSpace=wrap;html=1;absoluteArcSize=1;arcSize=14;strokeWidth=2;" parent="wUmFSTrWnR9z2WbMB7JU-1" vertex="1">
          
          <mxGeometry x="1000" y="-80" width="140" height="110" as="geometry" />
          
        </mxCell>
        
        <mxCell id="wUmFSTrWnR9z2WbMB7JU-43" value="2.5天提测" style="text;html=1;resizable=0;autosize=1;align=center;verticalAlign=middle;points=[];fillColor=none;strokeColor=none;rounded=0;" parent="wUmFSTrWnR9z2WbMB7JU-1" vertex="1">
          
          <mxGeometry x="925" y="-50" width="70" height="20" as="geometry" />
          
        </mxCell>
        
        <mxCell id="wUmFSTrWnR9z2WbMB7JU-44" value="" style="edgeStyle=orthogonalEdgeStyle;rounded=0;orthogonalLoop=1;jettySize=auto;html=1;" parent="wUmFSTrWnR9z2WbMB7JU-1" target="wUmFSTrWnR9z2WbMB7JU-42" edge="1">
          
          <mxGeometry relative="1" as="geometry">
            
            <mxPoint x="920" y="-25" as="sourcePoint" />
            
          </mxGeometry>
          
        </mxCell>
        
        <mxCell id="wUmFSTrWnR9z2WbMB7JU-45" value="&lt;span style=&quot;text-align: left ; background-color: rgb(255 , 255 , 255)&quot;&gt;S27 新增需求&lt;/span&gt;&lt;span style=&quot;font-family: &amp;#34;arial&amp;#34; ; font-size: 13px ; text-align: left ; background-color: rgb(255 , 255 , 255)&quot;&gt;【&lt;/span&gt;&lt;span style=&quot;font-family: &amp;#34;arial&amp;#34; ; font-size: 13px ; text-align: left ; background-color: rgb(255 , 255 , 255)&quot;&gt;WEB-增长策略】增长策略优化&lt;/span&gt;&lt;br style=&quot;text-align: left&quot;&gt;&lt;br style=&quot;text-align: left&quot;&gt;&lt;span style=&quot;text-align: left ; background-color: rgb(255 , 255 , 255)&quot;&gt;&lt;b&gt;郝旭龙（1.5）&lt;/b&gt;&lt;br&gt;张康鑫（2.5）&lt;br&gt;&lt;/span&gt;&lt;span style=&quot;text-align: left ; background-color: rgb(255 , 255 , 255)&quot;&gt;&lt;br&gt;郝旭龙和当前迭代1个故事冲突-动销指标&lt;br&gt;&lt;/span&gt;" style="rounded=1;whiteSpace=wrap;html=1;absoluteArcSize=1;arcSize=14;strokeWidth=2;" parent="wUmFSTrWnR9z2WbMB7JU-1" vertex="1">
          
          <mxGeometry x="527.5" y="70" width="390" height="110" as="geometry" />
          
        </mxCell>
        
        <mxCell id="wUmFSTrWnR9z2WbMB7JU-47" value="" style="endArrow=classic;html=1;entryX=0;entryY=0.5;entryDx=0;entryDy=0;" parent="wUmFSTrWnR9z2WbMB7JU-1" edge="1">
          
          <mxGeometry width="50" height="50" relative="1" as="geometry">
            
            <mxPoint x="400" y="440" as="sourcePoint" />
            
            <mxPoint x="527.5" y="120" as="targetPoint" />
            
            <Array as="points">
              
              <mxPoint x="400" y="120" />
              
            </Array>
            
          </mxGeometry>
          
        </mxCell>
        
        <mxCell id="wUmFSTrWnR9z2WbMB7JU-48" value="" style="endArrow=classic;html=1;entryX=0;entryY=0.5;entryDx=0;entryDy=0;" parent="wUmFSTrWnR9z2WbMB7JU-1" edge="1">
          
          <mxGeometry width="50" height="50" relative="1" as="geometry">
            
            <mxPoint x="400" y="440" as="sourcePoint" />
            
            <mxPoint x="527.5" y="250" as="targetPoint" />
            
            <Array as="points">
              
              <mxPoint x="400" y="250" />
              
            </Array>
            
          </mxGeometry>
          
        </mxCell>
        
        <mxCell id="wUmFSTrWnR9z2WbMB7JU-49" value="" style="edgeStyle=orthogonalEdgeStyle;rounded=0;orthogonalLoop=1;jettySize=auto;html=1;" parent="wUmFSTrWnR9z2WbMB7JU-1" target="wUmFSTrWnR9z2WbMB7JU-51" edge="1">
          
          <mxGeometry relative="1" as="geometry">
            
            <mxPoint x="920" y="115" as="sourcePoint" />
            
          </mxGeometry>
          
        </mxCell>
        
        <mxCell id="wUmFSTrWnR9z2WbMB7JU-50" value="2.5天提测" style="text;html=1;resizable=0;autosize=1;align=center;verticalAlign=middle;points=[];fillColor=none;strokeColor=none;rounded=0;" parent="wUmFSTrWnR9z2WbMB7JU-1" vertex="1">
          
          <mxGeometry x="925" y="90" width="70" height="20" as="geometry" />
          
        </mxCell>
        
        <mxCell id="wUmFSTrWnR9z2WbMB7JU-51" value="&lt;span style=&quot;text-align: left ; background-color: rgb(255 , 255 , 255)&quot;&gt;测试&lt;br&gt;&lt;br&gt;&lt;br&gt;&lt;b&gt;魏源（0.5）&lt;br&gt;&lt;/b&gt;&lt;br&gt;&lt;/span&gt;" style="rounded=1;whiteSpace=wrap;html=1;absoluteArcSize=1;arcSize=14;strokeWidth=2;" parent="wUmFSTrWnR9z2WbMB7JU-1" vertex="1">
          
          <mxGeometry x="1000" y="60" width="140" height="110" as="geometry" />
          
        </mxCell>
        
        <mxCell id="wUmFSTrWnR9z2WbMB7JU-52" value="" style="edgeStyle=orthogonalEdgeStyle;rounded=0;orthogonalLoop=1;jettySize=auto;html=1;" parent="wUmFSTrWnR9z2WbMB7JU-1" edge="1">
          
          <mxGeometry relative="1" as="geometry">
            
            <mxPoint x="915" y="265" as="sourcePoint" />
            
            <mxPoint x="995" y="265" as="targetPoint" />
            
          </mxGeometry>
          
        </mxCell>
        
        <mxCell id="wUmFSTrWnR9z2WbMB7JU-53" value="1.5天提测" style="text;html=1;resizable=0;autosize=1;align=center;verticalAlign=middle;points=[];fillColor=none;strokeColor=none;rounded=0;" parent="wUmFSTrWnR9z2WbMB7JU-1" vertex="1">
          
          <mxGeometry x="920" y="240" width="70" height="20" as="geometry" />
          
        </mxCell>
        
        <mxCell id="wUmFSTrWnR9z2WbMB7JU-65" value="" style="edgeStyle=orthogonalEdgeStyle;rounded=0;orthogonalLoop=1;jettySize=auto;html=1;entryX=0;entryY=0.5;entryDx=0;entryDy=0;entryPerimeter=0;" parent="wUmFSTrWnR9z2WbMB7JU-1" source="wUmFSTrWnR9z2WbMB7JU-56" target="wUmFSTrWnR9z2WbMB7JU-30" edge="1">
          
          <mxGeometry relative="1" as="geometry">
            
            <mxPoint x="1490" y="60" as="targetPoint" />
            
          </mxGeometry>
          
        </mxCell>
        
        <mxCell id="wUmFSTrWnR9z2WbMB7JU-56" value="UAT 测试&lt;br&gt;&lt;br&gt;1 天" style="rounded=1;whiteSpace=wrap;html=1;absoluteArcSize=1;arcSize=14;strokeWidth=2;" parent="wUmFSTrWnR9z2WbMB7JU-1" vertex="1">
          
          <mxGeometry x="1280" y="10" width="130" height="100" as="geometry" />
          
        </mxCell>
        
        <mxCell id="wUmFSTrWnR9z2WbMB7JU-61" value="" style="edgeStyle=orthogonalEdgeStyle;rounded=0;orthogonalLoop=1;jettySize=auto;html=1;entryX=0;entryY=0.5;entryDx=0;entryDy=0;" parent="wUmFSTrWnR9z2WbMB7JU-1" target="wUmFSTrWnR9z2WbMB7JU-56" edge="1">
          
          <mxGeometry relative="1" as="geometry">
            
            <mxPoint x="1140" y="110" as="sourcePoint" />
            
            <mxPoint x="1280" y="195" as="targetPoint" />
            
            <Array as="points">
              
              <mxPoint x="1210" y="110" />
              
              <mxPoint x="1210" y="60" />
              
            </Array>
            
          </mxGeometry>
          
        </mxCell>
        
        <mxCell id="wUmFSTrWnR9z2WbMB7JU-63" value="" style="edgeStyle=orthogonalEdgeStyle;rounded=0;orthogonalLoop=1;jettySize=auto;html=1;entryX=0;entryY=0.5;entryDx=0;entryDy=0;" parent="wUmFSTrWnR9z2WbMB7JU-1" target="wUmFSTrWnR9z2WbMB7JU-56" edge="1">
          
          <mxGeometry relative="1" as="geometry">
            
            <mxPoint x="1145" y="270" as="sourcePoint" />
            
            <mxPoint x="1285" y="220" as="targetPoint" />
            
            <Array as="points">
              
              <mxPoint x="1210" y="270" />
              
              <mxPoint x="1210" y="60" />
              
            </Array>
            
          </mxGeometry>
          
        </mxCell>
        
      </root>
      
    </mxGraphModel>
    
  </diagram>
  <diagram name="Sprint28" id="sCM92gzyI1LnCqw9E3AB">
    <mxGraphModel dx="1186" dy="511" grid="1" gridSize="10" guides="1" tooltips="1" connect="1" arrows="1" fold="1" page="1" pageScale="1" pageWidth="850" pageHeight="1100" math="0" shadow="0">
      <root>
        <mxCell id="9mDFRvNi5JOSWEZjaRce-0" />
        <mxCell id="9mDFRvNi5JOSWEZjaRce-1" parent="9mDFRvNi5JOSWEZjaRce-0" />
        <mxCell id="9mDFRvNi5JOSWEZjaRce-2" value="" style="rounded=0;whiteSpace=wrap;html=1;dashed=1;fillColor=#fff2cc;strokeColor=#d6b656;" parent="9mDFRvNi5JOSWEZjaRce-1" vertex="1">
          <mxGeometry x="470" y="20" width="680" height="310" as="geometry" />
        </mxCell>
        <mxCell id="9mDFRvNi5JOSWEZjaRce-3" value="" style="rounded=0;whiteSpace=wrap;html=1;dashed=1;fillColor=#e1d5e7;strokeColor=#9673a6;" parent="9mDFRvNi5JOSWEZjaRce-1" vertex="1">
          <mxGeometry x="930" y="380" width="440" height="190" as="geometry" />
        </mxCell>
        <mxCell id="9mDFRvNi5JOSWEZjaRce-4" value="" style="rounded=0;whiteSpace=wrap;html=1;dashed=1;fillColor=#f8cecc;strokeColor=#b85450;" parent="9mDFRvNi5JOSWEZjaRce-1" vertex="1">
          <mxGeometry x="470" y="380" width="430" height="270" as="geometry" />
        </mxCell>
        <mxCell id="9mDFRvNi5JOSWEZjaRce-5" value="" style="edgeStyle=orthogonalEdgeStyle;rounded=0;orthogonalLoop=1;jettySize=auto;html=1;" parent="9mDFRvNi5JOSWEZjaRce-1" source="9mDFRvNi5JOSWEZjaRce-19" target="9mDFRvNi5JOSWEZjaRce-7" edge="1">
          <mxGeometry relative="1" as="geometry">
            <mxPoint x="330" y="470" as="sourcePoint" />
            <mxPoint x="420" y="470" as="targetPoint" />
          </mxGeometry>
        </mxCell>
        <mxCell id="9mDFRvNi5JOSWEZjaRce-6" value="" style="edgeStyle=orthogonalEdgeStyle;rounded=0;orthogonalLoop=1;jettySize=auto;html=1;entryX=0;entryY=0.5;entryDx=0;entryDy=0;exitX=1;exitY=0.5;exitDx=0;exitDy=0;exitPerimeter=0;" parent="9mDFRvNi5JOSWEZjaRce-1" source="9mDFRvNi5JOSWEZjaRce-19" target="9mDFRvNi5JOSWEZjaRce-13" edge="1">
          <mxGeometry relative="1" as="geometry">
            <mxPoint x="280" y="440" as="sourcePoint" />
            <mxPoint x="280" y="360" as="targetPoint" />
          </mxGeometry>
        </mxCell>
        <mxCell id="9mDFRvNi5JOSWEZjaRce-7" value="S28&amp;nbsp; 后端开发（郭虎）&lt;br&gt;&lt;br&gt;&lt;span style=&quot;font-family: &amp;#34;arial&amp;#34; ; text-align: left ; background-color: rgb(255 , 255 , 255)&quot;&gt;&lt;font style=&quot;font-size: 11px&quot;&gt;【WEB-流动仪表盘】新增多个二级页面包括费用等&lt;/font&gt;&lt;/span&gt;&lt;br&gt;&lt;br&gt;14.5 天&amp;nbsp;" style="rounded=1;whiteSpace=wrap;html=1;absoluteArcSize=1;arcSize=14;strokeWidth=2;" parent="9mDFRvNi5JOSWEZjaRce-1" vertex="1">
          <mxGeometry x="580" y="420" width="170" height="100" as="geometry" />
        </mxCell>
        <mxCell id="9mDFRvNi5JOSWEZjaRce-8" value="" style="edgeStyle=orthogonalEdgeStyle;rounded=0;orthogonalLoop=1;jettySize=auto;html=1;exitX=1;exitY=0.5;exitDx=0;exitDy=0;" parent="9mDFRvNi5JOSWEZjaRce-1" source="9mDFRvNi5JOSWEZjaRce-7" target="9mDFRvNi5JOSWEZjaRce-10" edge="1">
          <mxGeometry relative="1" as="geometry">
            <mxPoint x="870" y="650" as="sourcePoint" />
          </mxGeometry>
        </mxCell>
        <mxCell id="9mDFRvNi5JOSWEZjaRce-64" value="" style="edgeStyle=orthogonalEdgeStyle;rounded=0;orthogonalLoop=1;jettySize=auto;html=1;" parent="9mDFRvNi5JOSWEZjaRce-1" source="9mDFRvNi5JOSWEZjaRce-10" target="9mDFRvNi5JOSWEZjaRce-63" edge="1">
          <mxGeometry relative="1" as="geometry" />
        </mxCell>
        <mxCell id="9mDFRvNi5JOSWEZjaRce-10" value="最后一个故事前后端联调&lt;br&gt;&lt;br&gt;0.5 天" style="rounded=1;whiteSpace=wrap;html=1;absoluteArcSize=1;arcSize=14;strokeWidth=2;" parent="9mDFRvNi5JOSWEZjaRce-1" vertex="1">
          <mxGeometry x="790" y="420" width="100" height="100" as="geometry" />
        </mxCell>
        <mxCell id="9mDFRvNi5JOSWEZjaRce-11" value="" style="edgeStyle=orthogonalEdgeStyle;rounded=0;orthogonalLoop=1;jettySize=auto;html=1;entryX=0;entryY=0.5;entryDx=0;entryDy=0;exitX=1;exitY=0.5;exitDx=0;exitDy=0;" parent="9mDFRvNi5JOSWEZjaRce-1" source="9mDFRvNi5JOSWEZjaRce-63" target="9mDFRvNi5JOSWEZjaRce-57" edge="1">
          <mxGeometry relative="1" as="geometry">
            <mxPoint x="1080" y="470" as="sourcePoint" />
            <mxPoint x="1160" y="470" as="targetPoint" />
          </mxGeometry>
        </mxCell>
        <mxCell id="9mDFRvNi5JOSWEZjaRce-12" value="" style="edgeStyle=orthogonalEdgeStyle;rounded=0;orthogonalLoop=1;jettySize=auto;html=1;entryX=0;entryY=0.5;entryDx=0;entryDy=0;" parent="9mDFRvNi5JOSWEZjaRce-1" source="9mDFRvNi5JOSWEZjaRce-13" target="9mDFRvNi5JOSWEZjaRce-10" edge="1">
          <mxGeometry relative="1" as="geometry">
            <mxPoint x="590" y="310" as="targetPoint" />
          </mxGeometry>
        </mxCell>
        <mxCell id="9mDFRvNi5JOSWEZjaRce-13" value="S28 前端开发（范军辉）&lt;br&gt;&lt;br&gt;&lt;span style=&quot;font-family: &amp;#34;arial&amp;#34; ; font-size: 11px ; text-align: left ; background-color: rgb(255 , 255 , 255)&quot;&gt;【WEB-流动仪表盘】新增多个二级页面包括费用等&lt;/span&gt;&lt;br&gt;&lt;br&gt;12 天" style="rounded=1;whiteSpace=wrap;html=1;absoluteArcSize=1;arcSize=14;strokeWidth=2;" parent="9mDFRvNi5JOSWEZjaRce-1" vertex="1">
          <mxGeometry x="580" y="540" width="170" height="100" as="geometry" />
        </mxCell>
        <mxCell id="9mDFRvNi5JOSWEZjaRce-14" value="S28 上线&lt;br&gt;&amp;nbsp;&lt;br&gt;&amp;nbsp;18.5 天" style="strokeWidth=2;html=1;shape=mxgraph.flowchart.terminator;whiteSpace=wrap;" parent="9mDFRvNi5JOSWEZjaRce-1" vertex="1">
          <mxGeometry x="1400" y="440" width="100" height="60" as="geometry" />
        </mxCell>
        <mxCell id="9mDFRvNi5JOSWEZjaRce-15" value="" style="strokeWidth=2;html=1;shape=mxgraph.flowchart.start_1;whiteSpace=wrap;opacity=0;" parent="9mDFRvNi5JOSWEZjaRce-1" vertex="1">
          <mxGeometry x="150" y="440" width="100" height="60" as="geometry" />
        </mxCell>
        <mxCell id="9mDFRvNi5JOSWEZjaRce-16" value="" style="strokeWidth=2;html=1;shape=mxgraph.flowchart.start_1;whiteSpace=wrap;opacity=0;" parent="9mDFRvNi5JOSWEZjaRce-1" vertex="1">
          <mxGeometry x="50" y="700" width="100" height="60" as="geometry" />
        </mxCell>
        <mxCell id="9mDFRvNi5JOSWEZjaRce-17" value="" style="edgeStyle=orthogonalEdgeStyle;rounded=0;orthogonalLoop=1;jettySize=auto;html=1;exitX=1;exitY=0.5;exitDx=0;exitDy=0;" parent="9mDFRvNi5JOSWEZjaRce-1" source="9mDFRvNi5JOSWEZjaRce-62" target="9mDFRvNi5JOSWEZjaRce-14" edge="1">
          <mxGeometry relative="1" as="geometry">
            <mxPoint x="1410" y="470" as="sourcePoint" />
          </mxGeometry>
        </mxCell>
        <mxCell id="9mDFRvNi5JOSWEZjaRce-19" value="开始" style="strokeWidth=2;html=1;shape=mxgraph.flowchart.start_1;whiteSpace=wrap;" parent="9mDFRvNi5JOSWEZjaRce-1" vertex="1">
          <mxGeometry x="350" y="440" width="100" height="60" as="geometry" />
        </mxCell>
        <mxCell id="9mDFRvNi5JOSWEZjaRce-20" value="" style="edgeStyle=orthogonalEdgeStyle;rounded=0;orthogonalLoop=1;jettySize=auto;html=1;entryX=0;entryY=0.5;entryDx=0;entryDy=0;" parent="9mDFRvNi5JOSWEZjaRce-1" source="9mDFRvNi5JOSWEZjaRce-21" target="9mDFRvNi5JOSWEZjaRce-50" edge="1">
          <mxGeometry relative="1" as="geometry" />
        </mxCell>
        <mxCell id="9mDFRvNi5JOSWEZjaRce-21" value="&lt;span style=&quot;text-align: left ; background-color: rgb(255 , 255 , 255)&quot;&gt;S28 R1 后端开发（鲁万财）&lt;br&gt;&lt;/span&gt;&lt;span style=&quot;text-align: left ; background-color: rgb(255 , 255 , 255)&quot;&gt;&lt;br&gt;2.6天&lt;br&gt;&lt;/span&gt;&lt;span style=&quot;text-align: left ; background-color: rgb(255 , 255 , 255)&quot;&gt;&lt;br&gt;&lt;/span&gt;" style="rounded=1;whiteSpace=wrap;html=1;absoluteArcSize=1;arcSize=14;strokeWidth=2;" parent="9mDFRvNi5JOSWEZjaRce-1" vertex="1">
          <mxGeometry x="514" y="70" width="166" height="110" as="geometry" />
        </mxCell>
        <mxCell id="9mDFRvNi5JOSWEZjaRce-22" value="" style="edgeStyle=orthogonalEdgeStyle;rounded=0;orthogonalLoop=1;jettySize=auto;html=1;entryX=0;entryY=0.5;entryDx=0;entryDy=0;exitX=1;exitY=0.5;exitDx=0;exitDy=0;" parent="9mDFRvNi5JOSWEZjaRce-1" source="9mDFRvNi5JOSWEZjaRce-50" target="9mDFRvNi5JOSWEZjaRce-61" edge="1">
          <mxGeometry relative="1" as="geometry">
            <mxPoint x="1020" y="119" as="targetPoint" />
            <mxPoint x="981" y="125" as="sourcePoint" />
          </mxGeometry>
        </mxCell>
        <mxCell id="9mDFRvNi5JOSWEZjaRce-26" value="" style="endArrow=classic;html=1;entryX=0;entryY=0.5;entryDx=0;entryDy=0;exitX=0.5;exitY=0;exitDx=0;exitDy=0;exitPerimeter=0;" parent="9mDFRvNi5JOSWEZjaRce-1" source="9mDFRvNi5JOSWEZjaRce-19" target="9mDFRvNi5JOSWEZjaRce-21" edge="1">
          <mxGeometry width="50" height="50" relative="1" as="geometry">
            <mxPoint x="400" y="430" as="sourcePoint" />
            <mxPoint x="497.5" y="185" as="targetPoint" />
            <Array as="points">
              <mxPoint x="400" y="125" />
            </Array>
          </mxGeometry>
        </mxCell>
        <mxCell id="9mDFRvNi5JOSWEZjaRce-28" value="S28 R1 上线&lt;br&gt;&lt;br&gt;5.5 天&amp;nbsp;" style="strokeWidth=2;html=1;shape=mxgraph.flowchart.terminator;whiteSpace=wrap;" parent="9mDFRvNi5JOSWEZjaRce-1" vertex="1">
          <mxGeometry x="1180" y="95" width="130" height="60" as="geometry" />
        </mxCell>
        <mxCell id="9mDFRvNi5JOSWEZjaRce-44" value="" style="edgeStyle=orthogonalEdgeStyle;rounded=0;orthogonalLoop=1;jettySize=auto;html=1;entryX=0;entryY=0.5;entryDx=0;entryDy=0;entryPerimeter=0;exitX=1;exitY=0.5;exitDx=0;exitDy=0;" parent="9mDFRvNi5JOSWEZjaRce-1" source="9mDFRvNi5JOSWEZjaRce-61" target="9mDFRvNi5JOSWEZjaRce-28" edge="1">
          <mxGeometry relative="1" as="geometry">
            <mxPoint x="1470" y="110" as="targetPoint" />
            <mxPoint x="1150" y="119" as="sourcePoint" />
          </mxGeometry>
        </mxCell>
        <mxCell id="9mDFRvNi5JOSWEZjaRce-52" value="" style="edgeStyle=orthogonalEdgeStyle;rounded=0;orthogonalLoop=1;jettySize=auto;html=1;entryX=0;entryY=0.5;entryDx=0;entryDy=0;exitX=0.5;exitY=0;exitDx=0;exitDy=0;" parent="9mDFRvNi5JOSWEZjaRce-1" source="9mDFRvNi5JOSWEZjaRce-48" target="9mDFRvNi5JOSWEZjaRce-50" edge="1">
          <mxGeometry relative="1" as="geometry">
            <mxPoint x="890" y="275" as="targetPoint" />
            <Array as="points">
              <mxPoint x="710" y="220" />
              <mxPoint x="710" y="125" />
            </Array>
          </mxGeometry>
        </mxCell>
        <mxCell id="9mDFRvNi5JOSWEZjaRce-48" value="&lt;span style=&quot;text-align: left ; background-color: rgb(255 , 255 , 255)&quot;&gt;S28 R1 前端开发（范军辉）&lt;br&gt;&lt;br&gt;&lt;/span&gt;&lt;span style=&quot;font-family: &amp;#34;arial&amp;#34; ; text-align: left ; background-color: rgb(255 , 255 , 255)&quot;&gt;&lt;font style=&quot;font-size: 11px&quot;&gt;【WEB-流动仪表盘】市场分析地图新增组织&amp;amp;渲染规则调整&lt;/font&gt;&lt;/span&gt;&lt;span style=&quot;text-align: left ; background-color: rgb(255 , 255 , 255)&quot;&gt;&lt;br&gt;&lt;/span&gt;&lt;span style=&quot;text-align: left ; background-color: rgb(255 , 255 , 255)&quot;&gt;&lt;br&gt;4天&lt;/span&gt;&lt;span style=&quot;text-align: left ; background-color: rgb(255 , 255 , 255)&quot;&gt;&lt;br&gt;&lt;/span&gt;" style="rounded=1;whiteSpace=wrap;html=1;absoluteArcSize=1;arcSize=14;strokeWidth=2;" parent="9mDFRvNi5JOSWEZjaRce-1" vertex="1">
          <mxGeometry x="510" y="210" width="170" height="110" as="geometry" />
        </mxCell>
        <mxCell id="9mDFRvNi5JOSWEZjaRce-49" value="" style="endArrow=classic;html=1;entryX=0;entryY=0.5;entryDx=0;entryDy=0;" parent="9mDFRvNi5JOSWEZjaRce-1" target="9mDFRvNi5JOSWEZjaRce-48" edge="1">
          <mxGeometry width="50" height="50" relative="1" as="geometry">
            <mxPoint x="400" y="440" as="sourcePoint" />
            <mxPoint x="544" y="220" as="targetPoint" />
            <Array as="points">
              <mxPoint x="400" y="265" />
            </Array>
          </mxGeometry>
        </mxCell>
        <mxCell id="9mDFRvNi5JOSWEZjaRce-50" value="最后一个故事前后端联调&amp;amp;测试&lt;br&gt;&lt;br&gt;0.5 天" style="rounded=1;whiteSpace=wrap;html=1;absoluteArcSize=1;arcSize=14;strokeWidth=2;" parent="9mDFRvNi5JOSWEZjaRce-1" vertex="1">
          <mxGeometry x="780" y="75" width="100" height="100" as="geometry" />
        </mxCell>
        <mxCell id="9mDFRvNi5JOSWEZjaRce-59" value="" style="edgeStyle=orthogonalEdgeStyle;rounded=0;orthogonalLoop=1;jettySize=auto;html=1;entryX=0;entryY=0.5;entryDx=0;entryDy=0;" parent="9mDFRvNi5JOSWEZjaRce-1" source="9mDFRvNi5JOSWEZjaRce-57" target="9mDFRvNi5JOSWEZjaRce-62" edge="1">
          <mxGeometry relative="1" as="geometry">
            <mxPoint x="1280" y="470" as="targetPoint" />
          </mxGeometry>
        </mxCell>
        <mxCell id="9mDFRvNi5JOSWEZjaRce-57" value="S28 集成测试&lt;br&gt;&lt;br&gt;1 天" style="rounded=1;whiteSpace=wrap;html=1;absoluteArcSize=1;arcSize=14;strokeWidth=2;" parent="9mDFRvNi5JOSWEZjaRce-1" vertex="1">
          <mxGeometry x="1090" y="420" width="100" height="100" as="geometry" />
        </mxCell>
        <mxCell id="9mDFRvNi5JOSWEZjaRce-61" value="S28 R1 UAT测试&lt;br&gt;测试，产品&lt;br&gt;&lt;br&gt;1 天" style="rounded=1;whiteSpace=wrap;html=1;absoluteArcSize=1;arcSize=14;strokeWidth=2;" parent="9mDFRvNi5JOSWEZjaRce-1" vertex="1">
          <mxGeometry x="970" y="75" width="100" height="100" as="geometry" />
        </mxCell>
        <mxCell id="9mDFRvNi5JOSWEZjaRce-62" value="S28 UAT测试&lt;br&gt;测试，产品&lt;br&gt;&lt;br&gt;2天" style="rounded=1;whiteSpace=wrap;html=1;absoluteArcSize=1;arcSize=14;strokeWidth=2;" parent="9mDFRvNi5JOSWEZjaRce-1" vertex="1">
          <mxGeometry x="1230" y="420" width="110" height="100" as="geometry" />
        </mxCell>
        <mxCell id="9mDFRvNi5JOSWEZjaRce-63" value="最后一个故事前后端测试&lt;br&gt;&lt;br&gt;0.5 天" style="rounded=1;whiteSpace=wrap;html=1;absoluteArcSize=1;arcSize=14;strokeWidth=2;" parent="9mDFRvNi5JOSWEZjaRce-1" vertex="1">
          <mxGeometry x="950" y="420" width="100" height="100" as="geometry" />
        </mxCell>
        <mxCell id="a0M0Kla2e9Ob-8CWIjO1-0" value="Text" style="text;html=1;align=center;verticalAlign=middle;resizable=0;points=[];autosize=1;" parent="9mDFRvNi5JOSWEZjaRce-1" vertex="1">
          <mxGeometry x="1355" y="591" width="40" height="20" as="geometry" />
        </mxCell>
      </root>
    </mxGraphModel>
  </diagram>
  <diagram name="Sprint29" id="fik2AlPfp6-MUyAGWcnJ">
    <mxGraphModel dx="1666" dy="690" grid="1" gridSize="10" guides="1" tooltips="1" connect="1" arrows="1" fold="1" page="1" pageScale="1" pageWidth="850" pageHeight="1100" math="0" shadow="0">
      <root>
        <mxCell id="Y-cCuXLWefpsq5f6a1PR-0" />
        <mxCell id="Y-cCuXLWefpsq5f6a1PR-1" parent="Y-cCuXLWefpsq5f6a1PR-0" />
        <mxCell id="Y-cCuXLWefpsq5f6a1PR-3" value="" style="rounded=0;whiteSpace=wrap;html=1;dashed=1;fillColor=#e1d5e7;strokeColor=#9673a6;" vertex="1" parent="Y-cCuXLWefpsq5f6a1PR-1">
          <mxGeometry x="930" y="380" width="440" height="190" as="geometry" />
        </mxCell>
        <mxCell id="Y-cCuXLWefpsq5f6a1PR-4" value="" style="rounded=0;whiteSpace=wrap;html=1;dashed=1;fillColor=#f8cecc;strokeColor=#b85450;" vertex="1" parent="Y-cCuXLWefpsq5f6a1PR-1">
          <mxGeometry x="470" y="380" width="430" height="270" as="geometry" />
        </mxCell>
        <mxCell id="Y-cCuXLWefpsq5f6a1PR-5" value="" style="edgeStyle=orthogonalEdgeStyle;rounded=0;orthogonalLoop=1;jettySize=auto;html=1;" edge="1" parent="Y-cCuXLWefpsq5f6a1PR-1" source="Y-cCuXLWefpsq5f6a1PR-18" target="Y-cCuXLWefpsq5f6a1PR-7">
          <mxGeometry relative="1" as="geometry">
            <mxPoint x="330" y="470" as="sourcePoint" />
            <mxPoint x="420" y="470" as="targetPoint" />
          </mxGeometry>
        </mxCell>
        <mxCell id="Y-cCuXLWefpsq5f6a1PR-6" value="" style="edgeStyle=orthogonalEdgeStyle;rounded=0;orthogonalLoop=1;jettySize=auto;html=1;entryX=0;entryY=0.5;entryDx=0;entryDy=0;exitX=1;exitY=0.5;exitDx=0;exitDy=0;exitPerimeter=0;" edge="1" parent="Y-cCuXLWefpsq5f6a1PR-1" source="Y-cCuXLWefpsq5f6a1PR-18" target="Y-cCuXLWefpsq5f6a1PR-13">
          <mxGeometry relative="1" as="geometry">
            <mxPoint x="280" y="440" as="sourcePoint" />
            <mxPoint x="280" y="360" as="targetPoint" />
          </mxGeometry>
        </mxCell>
        <mxCell id="Y-cCuXLWefpsq5f6a1PR-7" value="&amp;nbsp;后端开发（郭虎）&lt;br&gt;&lt;br&gt;&lt;br&gt;&lt;br&gt;14.5 天&amp;nbsp;" style="rounded=1;whiteSpace=wrap;html=1;absoluteArcSize=1;arcSize=14;strokeWidth=2;" vertex="1" parent="Y-cCuXLWefpsq5f6a1PR-1">
          <mxGeometry x="580" y="420" width="170" height="100" as="geometry" />
        </mxCell>
        <mxCell id="Y-cCuXLWefpsq5f6a1PR-8" value="" style="edgeStyle=orthogonalEdgeStyle;rounded=0;orthogonalLoop=1;jettySize=auto;html=1;exitX=1;exitY=0.5;exitDx=0;exitDy=0;" edge="1" parent="Y-cCuXLWefpsq5f6a1PR-1" source="Y-cCuXLWefpsq5f6a1PR-7" target="Y-cCuXLWefpsq5f6a1PR-10">
          <mxGeometry relative="1" as="geometry">
            <mxPoint x="870" y="650" as="sourcePoint" />
          </mxGeometry>
        </mxCell>
        <mxCell id="Y-cCuXLWefpsq5f6a1PR-9" value="" style="edgeStyle=orthogonalEdgeStyle;rounded=0;orthogonalLoop=1;jettySize=auto;html=1;" edge="1" parent="Y-cCuXLWefpsq5f6a1PR-1" source="Y-cCuXLWefpsq5f6a1PR-10" target="Y-cCuXLWefpsq5f6a1PR-33">
          <mxGeometry relative="1" as="geometry" />
        </mxCell>
        <mxCell id="Y-cCuXLWefpsq5f6a1PR-10" value="最后一个故事前后端联调&lt;br&gt;&lt;br&gt;0.5 天" style="rounded=1;whiteSpace=wrap;html=1;absoluteArcSize=1;arcSize=14;strokeWidth=2;" vertex="1" parent="Y-cCuXLWefpsq5f6a1PR-1">
          <mxGeometry x="790" y="420" width="100" height="100" as="geometry" />
        </mxCell>
        <mxCell id="Y-cCuXLWefpsq5f6a1PR-11" value="" style="edgeStyle=orthogonalEdgeStyle;rounded=0;orthogonalLoop=1;jettySize=auto;html=1;entryX=0;entryY=0.5;entryDx=0;entryDy=0;exitX=1;exitY=0.5;exitDx=0;exitDy=0;" edge="1" parent="Y-cCuXLWefpsq5f6a1PR-1" source="Y-cCuXLWefpsq5f6a1PR-33" target="Y-cCuXLWefpsq5f6a1PR-30">
          <mxGeometry relative="1" as="geometry">
            <mxPoint x="1080" y="470" as="sourcePoint" />
            <mxPoint x="1160" y="470" as="targetPoint" />
          </mxGeometry>
        </mxCell>
        <mxCell id="Y-cCuXLWefpsq5f6a1PR-12" value="" style="edgeStyle=orthogonalEdgeStyle;rounded=0;orthogonalLoop=1;jettySize=auto;html=1;entryX=0;entryY=0.5;entryDx=0;entryDy=0;" edge="1" parent="Y-cCuXLWefpsq5f6a1PR-1" source="Y-cCuXLWefpsq5f6a1PR-13" target="Y-cCuXLWefpsq5f6a1PR-10">
          <mxGeometry relative="1" as="geometry">
            <mxPoint x="590" y="310" as="targetPoint" />
          </mxGeometry>
        </mxCell>
        <mxCell id="Y-cCuXLWefpsq5f6a1PR-13" value="前端开发（范军辉）&lt;br&gt;&lt;br&gt;&lt;span style=&quot;font-family: &amp;#34;arial&amp;#34; ; font-size: 11px ; text-align: left ; background-color: rgb(255 , 255 , 255)&quot;&gt;【WEB-流动仪表盘】新增多个二级页面包括费用等&lt;/span&gt;&lt;br&gt;&lt;br&gt;12 天" style="rounded=1;whiteSpace=wrap;html=1;absoluteArcSize=1;arcSize=14;strokeWidth=2;" vertex="1" parent="Y-cCuXLWefpsq5f6a1PR-1">
          <mxGeometry x="580" y="540" width="170" height="100" as="geometry" />
        </mxCell>
        <mxCell id="Y-cCuXLWefpsq5f6a1PR-14" value="S28 上线&lt;br&gt;&amp;nbsp;&lt;br&gt;&amp;nbsp;18.5 天" style="strokeWidth=2;html=1;shape=mxgraph.flowchart.terminator;whiteSpace=wrap;" vertex="1" parent="Y-cCuXLWefpsq5f6a1PR-1">
          <mxGeometry x="1400" y="440" width="100" height="60" as="geometry" />
        </mxCell>
        <mxCell id="Y-cCuXLWefpsq5f6a1PR-15" value="" style="strokeWidth=2;html=1;shape=mxgraph.flowchart.start_1;whiteSpace=wrap;opacity=0;" vertex="1" parent="Y-cCuXLWefpsq5f6a1PR-1">
          <mxGeometry x="150" y="440" width="100" height="60" as="geometry" />
        </mxCell>
        <mxCell id="Y-cCuXLWefpsq5f6a1PR-16" value="" style="strokeWidth=2;html=1;shape=mxgraph.flowchart.start_1;whiteSpace=wrap;opacity=0;" vertex="1" parent="Y-cCuXLWefpsq5f6a1PR-1">
          <mxGeometry x="50" y="700" width="100" height="60" as="geometry" />
        </mxCell>
        <mxCell id="Y-cCuXLWefpsq5f6a1PR-17" value="" style="edgeStyle=orthogonalEdgeStyle;rounded=0;orthogonalLoop=1;jettySize=auto;html=1;exitX=1;exitY=0.5;exitDx=0;exitDy=0;" edge="1" parent="Y-cCuXLWefpsq5f6a1PR-1" source="Y-cCuXLWefpsq5f6a1PR-32" target="Y-cCuXLWefpsq5f6a1PR-14">
          <mxGeometry relative="1" as="geometry">
            <mxPoint x="1410" y="470" as="sourcePoint" />
          </mxGeometry>
        </mxCell>
        <mxCell id="Y-cCuXLWefpsq5f6a1PR-18" value="开始" style="strokeWidth=2;html=1;shape=mxgraph.flowchart.start_1;whiteSpace=wrap;" vertex="1" parent="Y-cCuXLWefpsq5f6a1PR-1">
          <mxGeometry x="350" y="440" width="100" height="60" as="geometry" />
        </mxCell>
        <mxCell id="Y-cCuXLWefpsq5f6a1PR-29" value="" style="edgeStyle=orthogonalEdgeStyle;rounded=0;orthogonalLoop=1;jettySize=auto;html=1;entryX=0;entryY=0.5;entryDx=0;entryDy=0;" edge="1" parent="Y-cCuXLWefpsq5f6a1PR-1" source="Y-cCuXLWefpsq5f6a1PR-30" target="Y-cCuXLWefpsq5f6a1PR-32">
          <mxGeometry relative="1" as="geometry">
            <mxPoint x="1280" y="470" as="targetPoint" />
          </mxGeometry>
        </mxCell>
        <mxCell id="Y-cCuXLWefpsq5f6a1PR-30" value="S28 集成测试&lt;br&gt;&lt;br&gt;1 天" style="rounded=1;whiteSpace=wrap;html=1;absoluteArcSize=1;arcSize=14;strokeWidth=2;" vertex="1" parent="Y-cCuXLWefpsq5f6a1PR-1">
          <mxGeometry x="1090" y="420" width="100" height="100" as="geometry" />
        </mxCell>
        <mxCell id="Y-cCuXLWefpsq5f6a1PR-32" value="S28 UAT测试&lt;br&gt;测试，产品&lt;br&gt;&lt;br&gt;2天" style="rounded=1;whiteSpace=wrap;html=1;absoluteArcSize=1;arcSize=14;strokeWidth=2;" vertex="1" parent="Y-cCuXLWefpsq5f6a1PR-1">
          <mxGeometry x="1230" y="420" width="110" height="100" as="geometry" />
        </mxCell>
        <mxCell id="Y-cCuXLWefpsq5f6a1PR-35" value="" style="edgeStyle=orthogonalEdgeStyle;rounded=0;orthogonalLoop=1;jettySize=auto;html=1;exitX=1;exitY=0.5;exitDx=0;exitDy=0;" edge="1" parent="Y-cCuXLWefpsq5f6a1PR-1" source="Y-cCuXLWefpsq5f6a1PR-10" target="2">
          <mxGeometry relative="1" as="geometry">
            <Array as="points">
              <mxPoint x="920" y="470" />
              <mxPoint x="920" y="650" />
            </Array>
          </mxGeometry>
        </mxCell>
        <mxCell id="Y-cCuXLWefpsq5f6a1PR-33" value="最后一个故事前后端测试&lt;br&gt;&lt;br&gt;0.5 天" style="rounded=1;whiteSpace=wrap;html=1;absoluteArcSize=1;arcSize=14;strokeWidth=2;" vertex="1" parent="Y-cCuXLWefpsq5f6a1PR-1">
          <mxGeometry x="950" y="420" width="100" height="100" as="geometry" />
        </mxCell>
        <mxCell id="2" value="其他&lt;br&gt;技术优化&lt;br&gt;&lt;br&gt;" style="rounded=1;whiteSpace=wrap;html=1;absoluteArcSize=1;arcSize=14;strokeWidth=2;" vertex="1" parent="Y-cCuXLWefpsq5f6a1PR-1">
          <mxGeometry x="950" y="611" width="100" height="80" as="geometry" />
        </mxCell>
      </root>
    </mxGraphModel>
  </diagram>
  <diagram name="Copy of Sprint28" id="3Gl3RMzcmp-i2fkWCE3D">
    <mxGraphModel dx="1186" dy="1611" grid="1" gridSize="10" guides="1" tooltips="1" connect="1" arrows="1" fold="1" page="1" pageScale="1" pageWidth="850" pageHeight="1100" math="0" shadow="0">
      <root>
        <mxCell id="2le2n4_1z1Wajeqns1z5-0" />
        <mxCell id="2le2n4_1z1Wajeqns1z5-1" parent="2le2n4_1z1Wajeqns1z5-0" />
        <mxCell id="2le2n4_1z1Wajeqns1z5-2" value="" style="rounded=0;whiteSpace=wrap;html=1;dashed=1;fillColor=#fff2cc;strokeColor=#d6b656;" parent="2le2n4_1z1Wajeqns1z5-1" vertex="1">
          <mxGeometry x="480" y="-220" width="1000" height="550" as="geometry" />
        </mxCell>
        <mxCell id="2le2n4_1z1Wajeqns1z5-3" value="" style="rounded=0;whiteSpace=wrap;html=1;dashed=1;fillColor=#e1d5e7;strokeColor=#9673a6;" parent="2le2n4_1z1Wajeqns1z5-1" vertex="1">
          <mxGeometry x="940" y="340" width="550" height="180" as="geometry" />
        </mxCell>
        <mxCell id="2le2n4_1z1Wajeqns1z5-4" value="" style="rounded=0;whiteSpace=wrap;html=1;dashed=1;fillColor=#f8cecc;strokeColor=#b85450;" parent="2le2n4_1z1Wajeqns1z5-1" vertex="1">
          <mxGeometry x="474" y="340" width="440" height="420" as="geometry" />
        </mxCell>
        <mxCell id="2le2n4_1z1Wajeqns1z5-5" value="" style="edgeStyle=orthogonalEdgeStyle;rounded=0;orthogonalLoop=1;jettySize=auto;html=1;" parent="2le2n4_1z1Wajeqns1z5-1" source="2le2n4_1z1Wajeqns1z5-19" target="2le2n4_1z1Wajeqns1z5-7" edge="1">
          <mxGeometry relative="1" as="geometry">
            <mxPoint x="330" y="430" as="sourcePoint" />
            <mxPoint x="420" y="430" as="targetPoint" />
          </mxGeometry>
        </mxCell>
        <mxCell id="2le2n4_1z1Wajeqns1z5-6" value="" style="edgeStyle=orthogonalEdgeStyle;rounded=0;orthogonalLoop=1;jettySize=auto;html=1;entryX=0;entryY=0.5;entryDx=0;entryDy=0;exitX=1;exitY=0.5;exitDx=0;exitDy=0;exitPerimeter=0;" parent="2le2n4_1z1Wajeqns1z5-1" source="2le2n4_1z1Wajeqns1z5-19" target="2le2n4_1z1Wajeqns1z5-13" edge="1">
          <mxGeometry relative="1" as="geometry">
            <mxPoint x="280" y="400" as="sourcePoint" />
            <mxPoint x="280" y="320" as="targetPoint" />
          </mxGeometry>
        </mxCell>
        <mxCell id="2le2n4_1z1Wajeqns1z5-7" value="S28&amp;nbsp; 后端开发（郭虎）&lt;br&gt;&lt;br&gt;&lt;span style=&quot;font-family: &amp;#34;arial&amp;#34; ; font-size: 11px ; text-align: left ; background-color: rgb(255 , 255 , 255)&quot;&gt;【WEB-流动仪表盘】新增多个二级页面包括费用等&lt;br&gt;&lt;/span&gt;&lt;br&gt;&amp;nbsp; 07/28" style="rounded=1;whiteSpace=wrap;html=1;absoluteArcSize=1;arcSize=14;strokeWidth=2;" parent="2le2n4_1z1Wajeqns1z5-1" vertex="1">
          <mxGeometry x="540" y="380" width="290" height="100" as="geometry" />
        </mxCell>
        <mxCell id="2le2n4_1z1Wajeqns1z5-8" value="" style="edgeStyle=orthogonalEdgeStyle;rounded=0;orthogonalLoop=1;jettySize=auto;html=1;exitX=1;exitY=0.5;exitDx=0;exitDy=0;entryX=0;entryY=0.5;entryDx=0;entryDy=0;" parent="2le2n4_1z1Wajeqns1z5-1" source="2le2n4_1z1Wajeqns1z5-7" target="2le2n4_1z1Wajeqns1z5-29" edge="1">
          <mxGeometry relative="1" as="geometry">
            <mxPoint x="870" y="610" as="sourcePoint" />
            <mxPoint x="780" y="430" as="targetPoint" />
          </mxGeometry>
        </mxCell>
        <mxCell id="2le2n4_1z1Wajeqns1z5-11" value="" style="edgeStyle=orthogonalEdgeStyle;rounded=0;orthogonalLoop=1;jettySize=auto;html=1;entryX=0;entryY=0.5;entryDx=0;entryDy=0;exitX=1;exitY=0.5;exitDx=0;exitDy=0;" parent="2le2n4_1z1Wajeqns1z5-1" source="2le2n4_1z1Wajeqns1z5-29" target="8lvnTYljEDhGM_GuH1BM-0" edge="1">
          <mxGeometry relative="1" as="geometry">
            <mxPoint x="1050" y="430" as="sourcePoint" />
            <mxPoint x="1130" y="430" as="targetPoint" />
          </mxGeometry>
        </mxCell>
        <mxCell id="2le2n4_1z1Wajeqns1z5-12" value="" style="edgeStyle=orthogonalEdgeStyle;rounded=0;orthogonalLoop=1;jettySize=auto;html=1;entryX=0;entryY=0.5;entryDx=0;entryDy=0;" parent="2le2n4_1z1Wajeqns1z5-1" source="2le2n4_1z1Wajeqns1z5-13" target="2le2n4_1z1Wajeqns1z5-29" edge="1">
          <mxGeometry relative="1" as="geometry">
            <mxPoint x="780" y="430" as="targetPoint" />
          </mxGeometry>
        </mxCell>
        <mxCell id="2le2n4_1z1Wajeqns1z5-13" value="S28 前端开发 （范军辉）&lt;br&gt;&lt;br&gt;&lt;font style=&quot;font-size: 11px&quot;&gt;&lt;span style=&quot;font-family: &amp;#34;arial&amp;#34; ; text-align: left ; background-color: rgb(255 , 255 , 255)&quot;&gt;【WEB-流动仪表盘】新增多个二级页面包括费用等&lt;/span&gt;&lt;br&gt;&lt;br&gt;&lt;/font&gt;07/30" style="rounded=1;whiteSpace=wrap;html=1;absoluteArcSize=1;arcSize=14;strokeWidth=2;" parent="2le2n4_1z1Wajeqns1z5-1" vertex="1">
          <mxGeometry x="540" y="520" width="290" height="120" as="geometry" />
        </mxCell>
        <mxCell id="2le2n4_1z1Wajeqns1z5-14" value="S28 上线&lt;br&gt;&amp;nbsp;&lt;br&gt;&amp;nbsp;08/05&amp;nbsp;" style="strokeWidth=2;html=1;shape=mxgraph.flowchart.terminator;whiteSpace=wrap;" parent="2le2n4_1z1Wajeqns1z5-1" vertex="1">
          <mxGeometry x="1510" y="400" width="140" height="60" as="geometry" />
        </mxCell>
        <mxCell id="2le2n4_1z1Wajeqns1z5-15" value="" style="strokeWidth=2;html=1;shape=mxgraph.flowchart.start_1;whiteSpace=wrap;opacity=0;" parent="2le2n4_1z1Wajeqns1z5-1" vertex="1">
          <mxGeometry x="150" y="440" width="100" height="60" as="geometry" />
        </mxCell>
        <mxCell id="2le2n4_1z1Wajeqns1z5-16" value="" style="strokeWidth=2;html=1;shape=mxgraph.flowchart.start_1;whiteSpace=wrap;opacity=0;" parent="2le2n4_1z1Wajeqns1z5-1" vertex="1">
          <mxGeometry x="50" y="700" width="100" height="60" as="geometry" />
        </mxCell>
        <mxCell id="2le2n4_1z1Wajeqns1z5-17" value="" style="edgeStyle=orthogonalEdgeStyle;rounded=0;orthogonalLoop=1;jettySize=auto;html=1;entryX=0;entryY=0.5;entryDx=0;entryDy=0;" parent="2le2n4_1z1Wajeqns1z5-1" source="2le2n4_1z1Wajeqns1z5-18" target="a3Zl-df9WgW-OC8gUVGr-5" edge="1">
          <mxGeometry relative="1" as="geometry" />
        </mxCell>
        <mxCell id="2le2n4_1z1Wajeqns1z5-18" value="S28 PRE测试&lt;br&gt;测试&lt;br&gt;&lt;br&gt;1天" style="rounded=1;whiteSpace=wrap;html=1;absoluteArcSize=1;arcSize=14;strokeWidth=2;" parent="2le2n4_1z1Wajeqns1z5-1" vertex="1">
          <mxGeometry x="1170" y="380" width="110" height="100" as="geometry" />
        </mxCell>
        <mxCell id="2le2n4_1z1Wajeqns1z5-19" value="开始" style="strokeWidth=2;html=1;shape=mxgraph.flowchart.start_1;whiteSpace=wrap;" parent="2le2n4_1z1Wajeqns1z5-1" vertex="1">
          <mxGeometry x="350" y="400" width="100" height="60" as="geometry" />
        </mxCell>
        <mxCell id="2le2n4_1z1Wajeqns1z5-20" value="" style="edgeStyle=orthogonalEdgeStyle;rounded=0;orthogonalLoop=1;jettySize=auto;html=1;" parent="2le2n4_1z1Wajeqns1z5-1" source="2le2n4_1z1Wajeqns1z5-21" target="2le2n4_1z1Wajeqns1z5-23" edge="1">
          <mxGeometry relative="1" as="geometry" />
        </mxCell>
        <mxCell id="2le2n4_1z1Wajeqns1z5-21" value="&lt;span style=&quot;font-family: &amp;#34;arial&amp;#34; ; font-size: 13px ; text-align: left ; background-color: rgb(255 , 255 , 255)&quot;&gt;【WEB-流动仪表盘】城市过滤&lt;/span&gt;&lt;span style=&quot;text-align: left ; background-color: rgb(255 , 255 , 255)&quot;&gt;&lt;br&gt;&lt;br&gt;&lt;/span&gt;&lt;span style=&quot;font-family: &amp;#34;arial&amp;#34; ; font-size: 13px ; text-align: left ; background-color: rgb(255 , 255 , 255)&quot;&gt;沈志刚（0.5）&lt;br&gt;&lt;b&gt;鲁万才（2.3）&lt;/b&gt;，王龙刚（0.5）&lt;br&gt;&lt;/span&gt;&lt;span style=&quot;text-align: left ; background-color: rgb(255 , 255 , 255)&quot;&gt;&lt;br&gt;&lt;/span&gt;" style="rounded=1;whiteSpace=wrap;html=1;absoluteArcSize=1;arcSize=14;strokeWidth=2;" parent="2le2n4_1z1Wajeqns1z5-1" vertex="1">
          <mxGeometry x="527.5" y="-200" width="392.5" height="110" as="geometry" />
        </mxCell>
        <mxCell id="2le2n4_1z1Wajeqns1z5-22" value="" style="edgeStyle=orthogonalEdgeStyle;rounded=0;orthogonalLoop=1;jettySize=auto;html=1;entryX=0;entryY=0.5;entryDx=0;entryDy=0;" parent="2le2n4_1z1Wajeqns1z5-1" source="2le2n4_1z1Wajeqns1z5-23" target="2le2n4_1z1Wajeqns1z5-45" edge="1">
          <mxGeometry relative="1" as="geometry">
            <mxPoint x="1220" y="-145" as="targetPoint" />
          </mxGeometry>
        </mxCell>
        <mxCell id="2le2n4_1z1Wajeqns1z5-23" value="&lt;span style=&quot;text-align: left ; background-color: rgb(255 , 255 , 255)&quot;&gt;测试&lt;br&gt;&lt;br&gt;&lt;/span&gt;&lt;span&gt;郑慧民（0.5）&lt;/span&gt;&lt;span style=&quot;text-align: left ; background-color: rgb(255 , 255 , 255)&quot;&gt;&lt;br&gt;&lt;br&gt;&lt;/span&gt;" style="rounded=1;whiteSpace=wrap;html=1;absoluteArcSize=1;arcSize=14;strokeWidth=2;fontStyle=0" parent="2le2n4_1z1Wajeqns1z5-1" vertex="1">
          <mxGeometry x="1000" y="-200" width="140" height="110" as="geometry" />
        </mxCell>
        <mxCell id="2le2n4_1z1Wajeqns1z5-24" value="&lt;span style=&quot;font-family: &amp;#34;arial&amp;#34; ; font-size: 13px ; text-align: left ; background-color: rgb(255 , 255 , 255)&quot;&gt;【后端技术优化】后端-Apollo配置中心-测试&lt;/span&gt;&lt;br style=&quot;text-align: left&quot;&gt;&lt;br style=&quot;text-align: left&quot;&gt;&lt;span style=&quot;text-align: left ; background-color: rgb(255 , 255 , 255)&quot;&gt;魏涛（0.5）&lt;br&gt;&lt;/span&gt;&lt;span style=&quot;text-align: left ; background-color: rgb(255 , 255 , 255)&quot;&gt;&lt;br&gt;&lt;/span&gt;" style="rounded=1;whiteSpace=wrap;html=1;absoluteArcSize=1;arcSize=14;strokeWidth=2;" parent="2le2n4_1z1Wajeqns1z5-1" vertex="1">
          <mxGeometry x="527.5" y="-70" width="390" height="110" as="geometry" />
        </mxCell>
        <mxCell id="2le2n4_1z1Wajeqns1z5-25" value="" style="endArrow=classic;html=1;entryX=0;entryY=0.5;entryDx=0;entryDy=0;" parent="2le2n4_1z1Wajeqns1z5-1" target="2le2n4_1z1Wajeqns1z5-24" edge="1">
          <mxGeometry width="50" height="50" relative="1" as="geometry">
            <mxPoint x="400" y="440" as="sourcePoint" />
            <mxPoint x="530" y="290" as="targetPoint" />
            <Array as="points">
              <mxPoint x="400" y="-15" />
            </Array>
          </mxGeometry>
        </mxCell>
        <mxCell id="2le2n4_1z1Wajeqns1z5-26" value="" style="endArrow=classic;html=1;entryX=0;entryY=0.5;entryDx=0;entryDy=0;exitX=0.5;exitY=0;exitDx=0;exitDy=0;exitPerimeter=0;" parent="2le2n4_1z1Wajeqns1z5-1" source="2le2n4_1z1Wajeqns1z5-19" target="2le2n4_1z1Wajeqns1z5-21" edge="1">
          <mxGeometry width="50" height="50" relative="1" as="geometry">
            <mxPoint x="400" y="430" as="sourcePoint" />
            <mxPoint x="497.5" y="185" as="targetPoint" />
            <Array as="points">
              <mxPoint x="400" y="-145" />
            </Array>
          </mxGeometry>
        </mxCell>
        <mxCell id="2le2n4_1z1Wajeqns1z5-27" value="测试&lt;br&gt;&lt;br&gt;&lt;span&gt;郑慧民（0.5）&lt;/span&gt;" style="rounded=1;whiteSpace=wrap;html=1;absoluteArcSize=1;arcSize=14;strokeWidth=2;fontStyle=0" parent="2le2n4_1z1Wajeqns1z5-1" vertex="1">
          <mxGeometry x="995" y="210" width="150" height="100" as="geometry" />
        </mxCell>
        <mxCell id="2le2n4_1z1Wajeqns1z5-28" value="S28 R1 上线&lt;br&gt;&lt;br&gt;07/17 下午" style="strokeWidth=2;html=1;shape=mxgraph.flowchart.terminator;whiteSpace=wrap;" parent="2le2n4_1z1Wajeqns1z5-1" vertex="1">
          <mxGeometry x="1520" y="30" width="130" height="60" as="geometry" />
        </mxCell>
        <mxCell id="a3Zl-df9WgW-OC8gUVGr-9" value="" style="edgeStyle=orthogonalEdgeStyle;rounded=0;orthogonalLoop=1;jettySize=auto;html=1;entryX=0;entryY=0.5;entryDx=0;entryDy=0;" parent="2le2n4_1z1Wajeqns1z5-1" source="2le2n4_1z1Wajeqns1z5-29" target="a3Zl-df9WgW-OC8gUVGr-8" edge="1">
          <mxGeometry relative="1" as="geometry" />
        </mxCell>
        <mxCell id="2le2n4_1z1Wajeqns1z5-29" value="最后一个故事测试&lt;br&gt;&lt;br&gt;07/31" style="rounded=1;whiteSpace=wrap;html=1;absoluteArcSize=1;arcSize=14;strokeWidth=2;" parent="2le2n4_1z1Wajeqns1z5-1" vertex="1">
          <mxGeometry x="870" y="380" width="100" height="100" as="geometry" />
        </mxCell>
        <mxCell id="a3Zl-df9WgW-OC8gUVGr-8" value="后端补充YAPI文档&lt;br&gt;&lt;br&gt;08/05" style="rounded=1;whiteSpace=wrap;html=1;absoluteArcSize=1;arcSize=14;strokeWidth=2;" parent="2le2n4_1z1Wajeqns1z5-1" vertex="1">
          <mxGeometry x="1010" y="530" width="120" height="100" as="geometry" />
        </mxCell>
        <mxCell id="2le2n4_1z1Wajeqns1z5-30" value="&lt;span style=&quot;font-family: &amp;#34;arial&amp;#34; ; font-size: 13px ; text-align: left ; background-color: rgb(255 , 255 , 255)&quot;&gt;【WEB-流动仪表盘】市场分析地图新增组织&lt;br&gt;&lt;/span&gt;&lt;br style=&quot;text-align: left&quot;&gt;&lt;span style=&quot;font-family: &amp;#34;arial&amp;#34; ; font-size: 13px ; text-align: left ; background-color: rgb(255 , 255 , 255)&quot;&gt;沈志刚（0.5），&lt;/span&gt;&lt;span style=&quot;text-align: left ; background-color: rgb(255 , 255 , 255)&quot;&gt;&lt;b&gt;范军辉（2）&lt;/b&gt;&lt;/span&gt;&lt;span style=&quot;text-align: left ; background-color: rgb(255 , 255 , 255)&quot;&gt;&lt;br&gt;&lt;/span&gt;" style="rounded=1;whiteSpace=wrap;html=1;absoluteArcSize=1;arcSize=14;strokeWidth=2;" parent="2le2n4_1z1Wajeqns1z5-1" vertex="1">
          <mxGeometry x="527.5" y="210" width="390" height="110" as="geometry" />
        </mxCell>
        <mxCell id="2le2n4_1z1Wajeqns1z5-31" value="2.3天提测" style="text;html=1;resizable=0;autosize=1;align=center;verticalAlign=middle;points=[];fillColor=none;strokeColor=none;rounded=0;" parent="2le2n4_1z1Wajeqns1z5-1" vertex="1">
          <mxGeometry x="925" y="-170" width="70" height="20" as="geometry" />
        </mxCell>
        <mxCell id="2le2n4_1z1Wajeqns1z5-32" value="" style="edgeStyle=orthogonalEdgeStyle;rounded=0;orthogonalLoop=1;jettySize=auto;html=1;entryX=0;entryY=0.5;entryDx=0;entryDy=0;" parent="2le2n4_1z1Wajeqns1z5-1" source="2le2n4_1z1Wajeqns1z5-33" target="2le2n4_1z1Wajeqns1z5-45" edge="1">
          <mxGeometry relative="1" as="geometry">
            <mxPoint x="1270" y="50" as="targetPoint" />
            <Array as="points">
              <mxPoint x="1210" y="-25" />
              <mxPoint x="1210" y="60" />
            </Array>
          </mxGeometry>
        </mxCell>
        <mxCell id="2le2n4_1z1Wajeqns1z5-33" value="&lt;span style=&quot;text-align: left ; background-color: rgb(255 , 255 , 255)&quot;&gt;测试&lt;br&gt;&lt;br&gt;&lt;/span&gt;&lt;span&gt;郑慧民（3）&lt;/span&gt;&lt;span style=&quot;text-align: left ; background-color: rgb(255 , 255 , 255)&quot;&gt;&lt;br&gt;&lt;/span&gt;" style="rounded=1;whiteSpace=wrap;html=1;absoluteArcSize=1;arcSize=14;strokeWidth=2;fontStyle=0" parent="2le2n4_1z1Wajeqns1z5-1" vertex="1">
          <mxGeometry x="1000" y="-80" width="140" height="110" as="geometry" />
        </mxCell>
        <mxCell id="2le2n4_1z1Wajeqns1z5-34" value="0.5天提测" style="text;html=1;resizable=0;autosize=1;align=center;verticalAlign=middle;points=[];fillColor=none;strokeColor=none;rounded=0;" parent="2le2n4_1z1Wajeqns1z5-1" vertex="1">
          <mxGeometry x="925" y="-50" width="70" height="20" as="geometry" />
        </mxCell>
        <mxCell id="2le2n4_1z1Wajeqns1z5-35" value="" style="edgeStyle=orthogonalEdgeStyle;rounded=0;orthogonalLoop=1;jettySize=auto;html=1;" parent="2le2n4_1z1Wajeqns1z5-1" target="2le2n4_1z1Wajeqns1z5-33" edge="1">
          <mxGeometry relative="1" as="geometry">
            <mxPoint x="920" y="-25" as="sourcePoint" />
          </mxGeometry>
        </mxCell>
        <mxCell id="2le2n4_1z1Wajeqns1z5-36" value="&lt;span style=&quot;text-align: left ; background-color: rgb(255 , 255 , 255)&quot;&gt;&lt;br&gt;&lt;/span&gt;&lt;span style=&quot;text-align: left ; background-color: rgb(255 , 255 , 255)&quot;&gt;&lt;br&gt;&lt;/span&gt;&lt;span style=&quot;font-family: &amp;#34;arial&amp;#34; ; font-size: 13px ; text-align: left ; background-color: rgb(255 , 255 , 255)&quot;&gt;【WEB-仪表盘】流动性看板-AB城市对比城市按照拼音首字母排序&lt;/span&gt;&lt;span style=&quot;font-family: &amp;#34;arial&amp;#34; ; font-size: 13px ; text-align: left ; background-color: rgb(255 , 255 , 255)&quot;&gt;&lt;br&gt;&lt;/span&gt;&lt;span style=&quot;font-family: &amp;#34;arial&amp;#34; ; font-size: 13px ; text-align: left ; background-color: rgb(255 , 255 , 255)&quot;&gt;【WEB-仪表盘】流动性看板-AB城市对比添加城市无法输入文本&lt;/span&gt;&lt;span style=&quot;text-align: left ; background-color: rgb(255 , 255 , 255)&quot;&gt;&lt;br&gt;&lt;br&gt;&lt;/span&gt;&lt;span style=&quot;font-family: &amp;#34;arial&amp;#34; ; font-size: 13px ; text-align: left ; background-color: rgb(255 , 255 , 255)&quot;&gt;鲁万才（0.3），&lt;b&gt;范军辉（1）&lt;/b&gt;&lt;/span&gt;&lt;span style=&quot;text-align: left ; background-color: rgb(255 , 255 , 255)&quot;&gt;&lt;br&gt;&lt;/span&gt;&lt;span style=&quot;text-align: left ; background-color: rgb(255 , 255 , 255)&quot;&gt;&lt;br&gt;&lt;/span&gt;" style="rounded=1;whiteSpace=wrap;html=1;absoluteArcSize=1;arcSize=14;strokeWidth=2;" parent="2le2n4_1z1Wajeqns1z5-1" vertex="1">
          <mxGeometry x="527.5" y="70" width="390" height="110" as="geometry" />
        </mxCell>
        <mxCell id="2le2n4_1z1Wajeqns1z5-37" value="" style="endArrow=classic;html=1;entryX=0;entryY=0.5;entryDx=0;entryDy=0;" parent="2le2n4_1z1Wajeqns1z5-1" edge="1">
          <mxGeometry width="50" height="50" relative="1" as="geometry">
            <mxPoint x="400" y="440" as="sourcePoint" />
            <mxPoint x="527.5" y="120" as="targetPoint" />
            <Array as="points">
              <mxPoint x="400" y="120" />
            </Array>
          </mxGeometry>
        </mxCell>
        <mxCell id="2le2n4_1z1Wajeqns1z5-38" value="" style="endArrow=classic;html=1;entryX=0;entryY=0.5;entryDx=0;entryDy=0;" parent="2le2n4_1z1Wajeqns1z5-1" edge="1">
          <mxGeometry width="50" height="50" relative="1" as="geometry">
            <mxPoint x="400" y="440" as="sourcePoint" />
            <mxPoint x="527.5" y="250" as="targetPoint" />
            <Array as="points">
              <mxPoint x="400" y="250" />
            </Array>
          </mxGeometry>
        </mxCell>
        <mxCell id="2le2n4_1z1Wajeqns1z5-39" value="" style="edgeStyle=orthogonalEdgeStyle;rounded=0;orthogonalLoop=1;jettySize=auto;html=1;" parent="2le2n4_1z1Wajeqns1z5-1" target="2le2n4_1z1Wajeqns1z5-41" edge="1">
          <mxGeometry relative="1" as="geometry">
            <mxPoint x="920" y="115" as="sourcePoint" />
          </mxGeometry>
        </mxCell>
        <mxCell id="2le2n4_1z1Wajeqns1z5-40" value="1天提测" style="text;html=1;resizable=0;autosize=1;align=center;verticalAlign=middle;points=[];fillColor=none;strokeColor=none;rounded=0;" parent="2le2n4_1z1Wajeqns1z5-1" vertex="1">
          <mxGeometry x="930" y="90" width="60" height="20" as="geometry" />
        </mxCell>
        <mxCell id="2le2n4_1z1Wajeqns1z5-41" value="&lt;span style=&quot;text-align: left ; background-color: rgb(255 , 255 , 255)&quot;&gt;测试&lt;br&gt;&lt;br&gt;&lt;br&gt;&lt;/span&gt;&lt;span&gt;郑慧民（0.5）&lt;/span&gt;&lt;span style=&quot;text-align: left ; background-color: rgb(255 , 255 , 255)&quot;&gt;&lt;span&gt;&lt;br&gt;&lt;/span&gt;&lt;br&gt;&lt;/span&gt;" style="rounded=1;whiteSpace=wrap;html=1;absoluteArcSize=1;arcSize=14;strokeWidth=2;fontStyle=0" parent="2le2n4_1z1Wajeqns1z5-1" vertex="1">
          <mxGeometry x="1000" y="60" width="140" height="110" as="geometry" />
        </mxCell>
        <mxCell id="2le2n4_1z1Wajeqns1z5-42" value="" style="edgeStyle=orthogonalEdgeStyle;rounded=0;orthogonalLoop=1;jettySize=auto;html=1;" parent="2le2n4_1z1Wajeqns1z5-1" edge="1">
          <mxGeometry relative="1" as="geometry">
            <mxPoint x="915" y="265" as="sourcePoint" />
            <mxPoint x="995" y="265" as="targetPoint" />
          </mxGeometry>
        </mxCell>
        <mxCell id="2le2n4_1z1Wajeqns1z5-43" value="2天提测" style="text;html=1;resizable=0;autosize=1;align=center;verticalAlign=middle;points=[];fillColor=none;strokeColor=none;rounded=0;" parent="2le2n4_1z1Wajeqns1z5-1" vertex="1">
          <mxGeometry x="925" y="240" width="60" height="20" as="geometry" />
        </mxCell>
        <mxCell id="2le2n4_1z1Wajeqns1z5-44" value="" style="edgeStyle=orthogonalEdgeStyle;rounded=0;orthogonalLoop=1;jettySize=auto;html=1;entryX=0;entryY=0.5;entryDx=0;entryDy=0;entryPerimeter=0;" parent="2le2n4_1z1Wajeqns1z5-1" source="2le2n4_1z1Wajeqns1z5-45" target="2le2n4_1z1Wajeqns1z5-28" edge="1">
          <mxGeometry relative="1" as="geometry">
            <mxPoint x="1490" y="60" as="targetPoint" />
          </mxGeometry>
        </mxCell>
        <mxCell id="2le2n4_1z1Wajeqns1z5-45" value="UAT 测试&lt;br&gt;&lt;br&gt;0.5 天" style="rounded=1;whiteSpace=wrap;html=1;absoluteArcSize=1;arcSize=14;strokeWidth=2;" parent="2le2n4_1z1Wajeqns1z5-1" vertex="1">
          <mxGeometry x="1280" y="10" width="130" height="100" as="geometry" />
        </mxCell>
        <mxCell id="2le2n4_1z1Wajeqns1z5-46" value="" style="edgeStyle=orthogonalEdgeStyle;rounded=0;orthogonalLoop=1;jettySize=auto;html=1;entryX=0;entryY=0.5;entryDx=0;entryDy=0;" parent="2le2n4_1z1Wajeqns1z5-1" target="2le2n4_1z1Wajeqns1z5-45" edge="1">
          <mxGeometry relative="1" as="geometry">
            <mxPoint x="1140" y="110" as="sourcePoint" />
            <mxPoint x="1280" y="195" as="targetPoint" />
            <Array as="points">
              <mxPoint x="1210" y="110" />
              <mxPoint x="1210" y="60" />
            </Array>
          </mxGeometry>
        </mxCell>
        <mxCell id="2le2n4_1z1Wajeqns1z5-47" value="" style="edgeStyle=orthogonalEdgeStyle;rounded=0;orthogonalLoop=1;jettySize=auto;html=1;entryX=0;entryY=0.5;entryDx=0;entryDy=0;" parent="2le2n4_1z1Wajeqns1z5-1" target="2le2n4_1z1Wajeqns1z5-45" edge="1">
          <mxGeometry relative="1" as="geometry">
            <mxPoint x="1145" y="270" as="sourcePoint" />
            <mxPoint x="1285" y="220" as="targetPoint" />
            <Array as="points">
              <mxPoint x="1210" y="270" />
              <mxPoint x="1210" y="60" />
            </Array>
          </mxGeometry>
        </mxCell>
        <mxCell id="8lvnTYljEDhGM_GuH1BM-1" value="" style="edgeStyle=orthogonalEdgeStyle;rounded=0;orthogonalLoop=1;jettySize=auto;html=1;" parent="2le2n4_1z1Wajeqns1z5-1" source="8lvnTYljEDhGM_GuH1BM-0" target="2le2n4_1z1Wajeqns1z5-18" edge="1">
          <mxGeometry relative="1" as="geometry" />
        </mxCell>
        <mxCell id="8lvnTYljEDhGM_GuH1BM-0" value="S28 集成测试&lt;br&gt;&lt;br&gt;1 天&lt;br&gt;07/31" style="rounded=1;whiteSpace=wrap;html=1;absoluteArcSize=1;arcSize=14;strokeWidth=2;" parent="2le2n4_1z1Wajeqns1z5-1" vertex="1">
          <mxGeometry x="1020" y="380" width="100" height="100" as="geometry" />
        </mxCell>
        <mxCell id="a3Zl-df9WgW-OC8gUVGr-0" value="2.8天完成" style="text;html=1;resizable=0;autosize=1;align=center;verticalAlign=middle;points=[];fillColor=none;strokeColor=none;rounded=0;" parent="2le2n4_1z1Wajeqns1z5-1" vertex="1">
          <mxGeometry x="1140" y="-170" width="70" height="20" as="geometry" />
        </mxCell>
        <mxCell id="a3Zl-df9WgW-OC8gUVGr-1" value="3.5天完成" style="text;html=1;resizable=0;autosize=1;align=center;verticalAlign=middle;points=[];fillColor=none;strokeColor=none;rounded=0;" parent="2le2n4_1z1Wajeqns1z5-1" vertex="1">
          <mxGeometry x="1135" y="-50" width="70" height="20" as="geometry" />
        </mxCell>
        <mxCell id="a3Zl-df9WgW-OC8gUVGr-3" value="1.5天完成" style="text;html=1;resizable=0;autosize=1;align=center;verticalAlign=middle;points=[];fillColor=none;strokeColor=none;rounded=0;" parent="2le2n4_1z1Wajeqns1z5-1" vertex="1">
          <mxGeometry x="1140" y="90" width="70" height="20" as="geometry" />
        </mxCell>
        <mxCell id="a3Zl-df9WgW-OC8gUVGr-4" value="2.5天完成" style="text;html=1;resizable=0;autosize=1;align=center;verticalAlign=middle;points=[];fillColor=none;strokeColor=none;rounded=0;" parent="2le2n4_1z1Wajeqns1z5-1" vertex="1">
          <mxGeometry x="1140" y="240" width="70" height="20" as="geometry" />
        </mxCell>
        <mxCell id="a3Zl-df9WgW-OC8gUVGr-6" value="" style="edgeStyle=orthogonalEdgeStyle;rounded=0;orthogonalLoop=1;jettySize=auto;html=1;" parent="2le2n4_1z1Wajeqns1z5-1" source="a3Zl-df9WgW-OC8gUVGr-5" target="2le2n4_1z1Wajeqns1z5-14" edge="1">
          <mxGeometry relative="1" as="geometry" />
        </mxCell>
        <mxCell id="a3Zl-df9WgW-OC8gUVGr-5" value="S28 UAT验收&lt;br&gt;产品&lt;br&gt;&lt;br&gt;1天" style="rounded=1;whiteSpace=wrap;html=1;absoluteArcSize=1;arcSize=14;strokeWidth=2;" parent="2le2n4_1z1Wajeqns1z5-1" vertex="1">
          <mxGeometry x="1320" y="380" width="110" height="100" as="geometry" />
        </mxCell>
        <mxCell id="a3Zl-df9WgW-OC8gUVGr-7" value="4天完成" style="text;html=1;resizable=0;autosize=1;align=center;verticalAlign=middle;points=[];fillColor=none;strokeColor=none;rounded=0;" parent="2le2n4_1z1Wajeqns1z5-1" vertex="1">
          <mxGeometry x="1415" y="40" width="60" height="20" as="geometry" />
        </mxCell>
        <mxCell id="a3Zl-df9WgW-OC8gUVGr-10" value="后端补充单元测试&lt;br&gt;&lt;br&gt;08/05" style="rounded=1;whiteSpace=wrap;html=1;absoluteArcSize=1;arcSize=14;strokeWidth=2;" parent="2le2n4_1z1Wajeqns1z5-1" vertex="1">
          <mxGeometry x="1010" y="660" width="120" height="100" as="geometry" />
        </mxCell>
        <mxCell id="a3Zl-df9WgW-OC8gUVGr-11" value="" style="edgeStyle=orthogonalEdgeStyle;rounded=0;orthogonalLoop=1;jettySize=auto;html=1;entryX=0;entryY=0.5;entryDx=0;entryDy=0;exitX=1;exitY=0.5;exitDx=0;exitDy=0;" parent="2le2n4_1z1Wajeqns1z5-1" source="2le2n4_1z1Wajeqns1z5-29" target="a3Zl-df9WgW-OC8gUVGr-10" edge="1">
          <mxGeometry relative="1" as="geometry">
            <mxPoint x="980" y="440" as="sourcePoint" />
            <mxPoint x="1020" y="600" as="targetPoint" />
          </mxGeometry>
        </mxCell>
      </root>
    </mxGraphModel>
  </diagram>
</mxfile>
